<?xml version="1.0" encoding="UTF-8"?>
<svg enable-background="new 0 0 542 157" version="1.1" viewBox="0 0 150 150" xml:space="preserve" xmlns="http://www.w3.org/2000/svg"><defs><mask id="c" x="0" y=".3" width="299.2" height="156.7" maskUnits="userSpaceOnUse"><g class="st0"><path class="st1" d="m299.2 156.9h-299.1v-156.6h299.1z"/></g></mask><filter id="b" x="0" y=".3" width="299.2" height="156.7" filterUnits="userSpaceOnUse"><feColorMatrix values="1 0 0 0 0 0 1 0 0 0 0 0 1 0 0 0 0 0 1 0"/></filter><mask id="d" x="0" y=".3" width="299.2" height="156.7" maskUnits="userSpaceOnUse"><g class="st0"><path class="st1" d="m299.2 156.9h-299.1v-156.6h299.1z"/></g></mask></defs><style>.st0{filter:url(#b);} .st1{fill:#FFFFFF;} .st2{mask:url(#c);fill:#FFFFFF;}</style><style>.st0{filter:url(#b);} .st1{fill:#FFFFFF;} .st2{mask:url(#c);fill:#FFFFFF;}</style><style>.st0{filter:url(#b);} .st1{fill:#FFFFFF;} .st2{mask:url(#c);fill:#FFFFFF;}</style><g transform="translate(-328.8 -1.1987)" fill="#fff"><g stroke-dasharray="9.61383, 9.61383" stroke-width="1.6023"><path d="m367.82 1.1987h71.954a39.023 39.023 45 0 1 39.023 39.023v71.954a39.023 39.023 135 0 1-39.023 39.023h-71.954a39.023 39.023 45 0 1-39.023-39.023v-71.954a39.023 39.023 135 0 1 39.023-39.023z" fill="#fff"/><path d="m393.93 9.7983c-0.62904 0-1.4799 0.073692-1.8906 0.16406-0.41073 0.09037-1.219 0.25448-1.7969 0.36523-0.57791 0.11075-1.4045 0.27928-1.8379 0.375-0.43344 0.09568-1.0044 0.17368-1.2676 0.17188-0.2632-0.0014-0.52458 0.07034-0.58008 0.16016-0.0555 0.08988-0.32889 0.16406-0.60742 0.16406-0.93119 0-2.2546 0.37193-2.8359 0.79688-0.31655 0.23138-0.82682 0.5537-1.1328 0.71484-0.54402 0.28651-0.56864 0.28117-1.1094-0.17383-0.30727-0.25858-0.64257-0.40787-0.75586-0.33789-0.11214 0.06931-0.63813 0.18193-1.168 0.25s-1.7119 0.29476-2.627 0.50391c-0.915 0.20914-2.2164 0.45296-2.8906 0.54297-0.67423 0.09002-1.5802 0.27612-2.0137 0.41406-1.0048 0.31978-3.5484 0.75956-4.4883 0.77539-0.96721 0.01631-3.1071 0.47532-3.7402 0.80274-0.28042 0.14501-0.66657 0.26367-0.85742 0.26367s-0.80484 0.23403-1.3652 0.51953c-0.56039 0.28549-1.413 0.68684-1.8945 0.89258-2.7267 1.1649-3.0662 1.4019-4.3828 3.0469-0.69689 0.87064-1.5204 1.8204-1.8301 2.1094-0.3097 0.28895-0.80646 0.87907-1.1035 1.3125-0.29705 0.43342-0.59411 0.82686-0.65821 0.875-0.0642 0.04816-0.32257 0.41655-0.57421 0.81836-0.25163 0.4018-0.69566 0.87206-0.98829 1.0449-0.29262 0.17286-0.58077 0.46408-0.63867 0.64648-0.0579 0.1824-0.5828 1.0911-1.168 2.0195-1.025 1.6264-1.877 3.5627-1.877 4.2656 0 0.18559-0.20515 0.94228-0.45508 1.6816-0.24993 0.73936-0.52568 1.7789-0.61328 2.3086-0.0876 0.52975-0.23402 1.3563-0.32422 1.8379-0.0901 0.48158-0.16778 1.3101-0.17578 1.8398-7e-3 0.52974-0.13512 1.396-0.28515 1.9258-0.22244 0.78534-0.27421 2.0942-0.28321 7.0918-0.01 6.0578-4e-3 6.1528 0.45703 8.0566 0.70465 2.9077 0.7753 3.247 0.89258 4.2852 0.0596 0.52734 0.18395 1.0515 0.27735 1.1641 0.0934 0.11254 0.2059 0.42994 0.25 0.70508 0.29558 1.8417 0.93537 4.2157 1.5723 5.8418 1.2758 3.2575 1.6641 4.5233 1.6641 5.4258 0 0.27851 0.18894 1.0433 0.41993 1.6992 0.86374 2.4527 1.0154 3.6556 0.97656 7.7344-0.0198 2.085 0.0251 5.4641 0.0996 7.5098l0.13476 3.7188 0.45508 0.29297c0.81202 0.5239 2.7542 2.6374 2.9785 3.2402 0.12029 0.32329 0.2906 0.72337 0.3789 0.89063 0.18518 0.35067 0.2028 0.92171 0.0469 1.5039-0.0699 0.2609-0.74219 0.83204-1.8809 1.6016-2.4777 1.6745-5.0098 4.3663-5.0098 5.3242 0 0.18397-0.3554 0.75022-0.78906 1.2578-0.52118 0.61005-0.75053 1.0212-0.67773 1.2109 0.0642 0.16723-0.033 0.44749-0.23243 0.67188-0.1883 0.21182-0.57405 0.85258-0.85546 1.4238-0.58614 1.1899-2.7779 3.7259-4.5527 5.2656-0.666 0.57779-1.5098 1.322-1.875 1.6543-0.79579 0.72416-1.2982 1.0648-3.3652 2.2852-1.5012 0.88633-2.7901 1.7179-3.8848 2.4648a39.023 39.023 0 0 0 36.627 25.982h25.197c-0.0668-0.48456-0.1376-1.017-0.30664-1.8281-0.31901-1.5308-0.58628-2.3085-1.1152-3.2402-0.62827-1.1067-2.6508-4.244-3.0391-4.7148-0.64111-0.77753-2.2539-2.9714-2.2539-3.0664 0-0.0648-0.29375-0.42856-0.6543-0.80859-0.36054-0.38001-0.79234-0.88812-0.95899-1.1289-0.34861-0.50371-5.154-5.5448-7.2305-7.5859-0.77054-0.7574-2.5031-2.3602-3.8516-3.5605-1.3484-1.2004-3.1624-3.0021-4.0293-4.0039-0.86684-1.0018-2.3738-2.7507-3.3496-3.8867-0.97576-1.136-2.8276-3.0694-4.1152-4.2969-1.2877-1.2275-2.5782-2.4722-2.8672-2.7656-0.28894-0.29345-1.3728-1.3847-2.4082-2.4258-1.0354-1.0411-1.8809-1.9731-1.8809-2.0703 0-0.31672 0.95209-2.0627 1.3301-2.4375 0.2027-0.20101 0.5851-0.94785 0.84961-1.6602 0.26452-0.7123 0.54058-1.4127 0.61328-1.5566 0.0725-0.14396 0.074-0.3804 2e-3 -0.52539-0.19345-0.3893-0.51953-2.2894-0.51953-3.0293 0-0.55037 0.0669-0.65941 0.4668-0.75976 0.68187-0.17114 2.2822 0.42147 2.6914 0.99609 0.56687 0.79611 0.68383 1.2862 0.48828 2.0566-0.27203 1.0717 0.19067 2.3092 1.1387 3.0469 0.40249 0.31321 0.77026 0.61603 0.81836 0.67383s0.42178 0.29089 0.83008 0.51757c0.40829 0.22667 0.78805 0.55695 0.84375 0.73243s0.19469 0.3183 0.30859 0.31835c0.11392 4e-5 0.54625 0.39346 0.96094 0.875 0.78949 0.91674 1.3681 1.1158 1.7852 0.61329 0.48621-0.58584 1.934-0.21193 2.2637 0.58398 0.12773 0.30836 0.39192 0.56836 0.64062 0.63086 0.2766 0.0694 0.61289 0.43736 0.9668 1.0644 0.47169 0.83581 0.60946 0.96094 1.0762 0.96094 0.30154 0 0.787 0.19161 1.1094 0.4375 0.56132 0.42814 0.58425 0.43031 1.1113 0.13086l0.53711-0.30664 0.53516 0.57031c0.29596 0.3152 0.70947 0.56836 0.92773 0.56836 0.21677 0 0.86831 0.30739 1.4473 0.68359 0.57895 0.3762 1.2446 0.71105 1.4785 0.74415 0.56797 0.0805 0.87596 0.77345 1.0547 2.3672 0.0796 0.70973 0.19436 1.3732 0.25586 1.4727s0.11047 0.89256 0.10547 1.7637c-9e-3 1.8046 0.22623 2.346 1.5273 3.5215 0.60129 0.54321 0.8551 0.65429 1.4785 0.65429 0.41388 0 0.84095-0.089 0.95117-0.19922 0.15047-0.15052 0.33842-0.14395 0.75195 0.0273 0.53412 0.22124 0.54689 0.25353 0.43165 1.0332-0.0654 0.44224-0.2436 0.94246-0.39649 1.1133-0.3266 0.3649-0.33018 0.36062 1.2168 1.4746 0.64339 0.46329 2.0402 1.6495 3.1035 2.6367 1.0993 1.0206 2.0822 1.7949 2.2793 1.7949 0.19138 0 0.55976 0.27888 0.82227 0.62305 0.26146 0.34279 0.71835 0.74658 1.0156 0.89648 0.54019 0.27241 4.2323 3.9445 5.6914 5.6602 0.42497 0.4997 1.0757 1.0987 1.4453 1.332 0.36965 0.23336 0.67187 0.55044 0.67187 0.70508 0 0.15462 0.21818 0.53249 0.48633 0.83789 0.26816 0.30542 0.72215 0.91788 1.0078 1.3633 0.39903 0.62217 0.65686 0.83718 1.1133 0.92578 0.54002 0.10487 0.67185 0.0391 1.4551-0.72851 0.96862-0.94926 1.917-2.4218 2.2344-3.4707 0.31835-1.0522 0.69-1.8117 0.96094-1.9648 0.1851-0.10463 0.20883-0.32128 0.0996-0.91602-0.0803-0.43684-0.0735-0.961 0.0156-1.1953 0.13162-0.34614 0.24295-0.40005 0.65039-0.31055 0.36996 0.0813 0.57468 0.0166 0.83008-0.26562 0.18656-0.20614 0.57607-0.49432 0.86523-0.64063 0.28918-0.14632 1.5506-1.2917 2.8027-2.5449 1.2521-1.2532 3.0455-2.8686 3.9863-3.5898 0.94082-0.72125 1.7674-1.4064 1.8379-1.5215s0.83823-0.80663 1.7051-1.5371c0.86686-0.73045 1.8478-1.6122 2.1797-1.959 0.33192-0.34676 0.69443-0.63086 0.80664-0.63086s0.58967-0.36259 1.0606-0.80664c2.6825-2.5297 6.9587-5.8778 8.3867-6.5664 0.44066-0.21254 0.52539-0.35556 0.52539-0.88867 0-0.34955 0.0587-0.69613 0.13086-0.76953 0.2363-0.23988 0.1392-0.73466-0.17383-0.88086-0.16856-0.0787-1.2921-0.18955-2.4961-0.24805-2.0836-0.10104-2.6158-0.21332-4.0274-0.83984-0.33711-0.14962-0.66882-0.2762-0.73632-0.2832-0.0674-6e-3 -0.21983-0.10848-0.33985-0.22852-0.17425-0.17425-0.15526-0.26676 0.0996-0.45312 0.26084-0.19073 0.28425-0.30036 0.12305-0.60157-0.10861-0.20277-0.19727-0.60174-0.19727-0.88671 0-0.31209-0.11155-0.5607-0.27929-0.625-0.37381-0.14346-0.59766 0.0171-0.59766 0.42968 0 0.22492-0.12007 0.33985-0.35547 0.33985-0.19564 0-0.40163 0.11919-0.45703 0.26367-0.11717 0.30533-0.6872 0.35008-0.86133 0.0684-0.0661-0.1068-0.3353-0.1493-0.60351-0.0957-0.6202 0.12403-1.6864-0.1674-1.8125-0.4961-0.13653-0.3558-1.2565-0.79101-2.0371-0.79101-0.88925 0-1.4884-0.51424-1.8438-1.584-0.3603-1.0848-0.93886-1.5379-1.5879-1.2422-0.65178 0.29696-1.0709 0.2431-1.1738-0.15039-0.0503-0.19254-0.0209-0.39326 0.0664-0.44726 0.0872-0.0539 0.16016-0.29224 0.16016-0.52735 0-0.57066-0.48442-0.55962-0.70312 0.0156-0.0925 0.24326-0.28354 0.48641-0.42579 0.54101-0.37397 0.14351-1.6649-0.82117-1.6699-1.248-2e-3 -0.19435-0.20644-0.65362-0.45508-1.0195-0.36733-0.54062-0.5439-0.65496-0.9414-0.61328-0.26907 0.02822-0.59802-0.03356-0.73047-0.13672-0.13243-0.10315-0.37832-0.23682-0.54688-0.29688-0.33961-0.12108-0.41024-0.56033-0.11914-0.74023 0.1028-0.06359 0.13989-0.23527 0.084-0.38086-0.0559-0.14559 0.0625-0.52919 0.26172-0.85156 0.2744-0.44392 0.31948-0.66574 0.18554-0.91602-0.11704-0.21717-0.11934-0.39043-6e-3 -0.50391 0.22542-0.22541 0.0185-0.75586-0.29492-0.75586-0.14189 0-0.24414-0.1791-0.24414-0.42774 0-0.23511-0.0814-0.47708-0.18164-0.53906-0.1002-0.06195-0.13974-0.25248-0.0859-0.42188 0.0552-0.17376-0.0599-0.50998-0.26562-0.77148-0.20055-0.25495-0.34235-0.60195-0.31445-0.77148 0.15584-0.94699-0.96862-1.0181-2.0098-0.12695-0.83586 0.71545-1.4147 0.91293-1.7852 0.60547-0.1444-0.11984-0.47584-0.17415-0.74218-0.12109-0.28251 0.05627-0.62268-8e-3 -0.82227-0.1543-0.19974-0.1464-0.75079-0.24805-1.3359-0.24805-0.97407 0-2.1307-0.34307-2.3496-0.69726-0.0604-0.09779-0.25282-0.17774-0.42773-0.17774-0.21735 0-0.35339-0.17747-0.42969-0.55859-0.21664-1.0832-1.0365-1.5164-1.7129-0.9043-0.4184 0.37856-0.40725 0.79768 0.0293 1.0703 0.37244 0.2326 0.46188 0.65251 0.17773 0.82812-0.26984 0.16677-0.8789-0.24114-0.8789-0.58789 0-0.1725-0.27619-0.54314-0.61329-0.82422-0.35771-0.29826-0.61132-0.67111-0.61132-0.89453 0-0.26221-0.12374-0.39919-0.39063-0.4375-0.2143-0.03078-0.48355-0.24489-0.59765-0.47461-0.29464-0.59322-0.5658-0.71764-1.4863-0.67969-0.62893 0.02589-0.94202-0.06552-1.4004-0.41016-0.32483-0.24424-0.73587-0.49744-0.91211-0.5625-0.24666-0.0911-0.29424-0.23221-0.21094-0.61133 0.0797-0.36276 0.0165-0.57409-0.23828-0.80469-0.19022-0.17214-0.43609-0.25867-0.54492-0.19141-0.12458 0.07698-0.17553 0.0057-0.14063-0.19336 0.0464-0.26418-0.14776-0.3528-1.1719-0.53516-2.3734-0.42259-4.7712-0.30401-4.5684 0.22461 0.0528 0.13751-0.0751 0.41886-0.28321 0.62695-0.36497 0.36496-0.38423 0.36736-0.56445 0.05078-0.10275-0.1805-0.53155-0.64809-0.95117-1.0391-0.41964-0.39096-0.9059-0.99275-1.082-1.3379-0.29425-0.57662-0.38241-0.62695-1.0918-0.62695-0.68659 0-0.79266 0.05353-0.95898 0.49414-0.1179 0.31248-0.12557 0.53409-0.0195 0.59961 0.10321 0.06376 0.0897 0.19916-0.0352 0.34961-0.1119 0.13489-0.2657 0.20721-0.3418 0.16016-0.0761-0.04703-0.36256 0.18922-0.63672 0.52539-0.27883 0.34188-0.68662 0.63086-0.92578 0.65625-0.37382 0.03967-0.44729-0.04851-0.58008-0.69922-0.12938-0.63405-0.21501-0.74414-0.58398-0.74414-1.0143 0-2.1848 0.86176-2.8477 2.0977-0.57333 1.0691-2.5437 1.7669-3.4883 1.2344-0.41603-0.23453-2.4255-1.0339-3.2812-1.3047-0.95575-0.30245-2.6992-1.4357-4.1055-2.668-1.1303-0.99049-2.4658-2.6528-3.6797-4.582-0.32265-0.51277-1.0337-1.3598-1.582-1.8828-0.93858-0.89526-1.1299-1.1794-1.8144-2.7012-0.15164-0.33711-0.55638-1.0862-0.90039-1.6641-1.1595-1.9479-1.5562-2.9291-1.623-4.0273-0.0352-0.5779-0.14844-1.2227-0.25195-1.4336-0.1127-0.2297-0.1396-0.72204-0.0664-1.2266 0.0672-0.46329 0.12686-1.0007 0.13086-1.1934 0.0211-1.0389 0.37606-3.2996 0.67969-4.3262 0.26159-0.88448 0.4651-1.2437 0.82617-1.4629 0.2635-0.15998 0.82198-0.71988 1.2402-1.2441 0.85521-1.0719 2.0247-1.7145 3.6777-2.0176 0.54469-0.09987 1.2482-0.28991 1.5645-0.42383 0.31629-0.13392 0.66847-0.24414 0.7832-0.24414 0.25574 0 2.414 0.78499 3.3711 1.2266 0.38528 0.17775 0.9754 0.35684 1.3125 0.39844 1.2132 0.1497 3.8509 1.2698 5.9004 2.5039 0.5867 0.35329 1.2285 0.59961 1.5606 0.59961 0.31039 0 1.0238 0.22975 1.5859 0.50977 2.0889 1.0406 3.0775 0.79515 3.2578-0.80469 0.13164-1.1679 0.58948-1.5112 1.8047-1.3594l0.91406 0.11328 0.63086-1.1289c0.34732-0.62106 0.63281-1.2208 0.63281-1.334s-0.2065-0.51888-0.45898-0.90039c-0.27708-0.41875-0.42299-0.83368-0.36719-1.0469 0.0508-0.19423 0.0209-0.39723-0.0664-0.45117-0.326-0.20148-0.15619-1.8997 0.2793-2.7891 0.31595-0.64516 0.40117-1.0391 0.32617-1.5078-0.10584-0.6619-0.0875-0.69147 0.87696-1.416 0.27653-0.20775 0.61683-0.6497 0.75585-0.98242 0.2458-0.58831 0.23674-0.61866-0.28515-1.1289-0.41955-0.41019-0.53516-0.67643-0.53516-1.2168 0-0.8144 0.20143-1.2541 0.92383-2.0176 0.45359-0.47936 0.49746-0.60286 0.30078-0.83984-0.12681-0.15284-0.34879-0.23279-0.49219-0.17773-0.36535 0.14019-1.7889-0.41048-2.293-0.88672-0.39134-0.36974-0.40323-0.43657-0.1836-0.9668 0.12986-0.31351 0.49621-0.91121 0.81445-1.3281 0.31823-0.41692 0.57813-0.84719 0.57813-0.95508 0-0.10789-0.27422-0.50186-0.61133-0.875-0.70538-0.78076-0.80177-1.5033-0.26367-1.9902 0.19262-0.17434 0.34961-0.40684 0.34961-0.51562 0-0.35552-1.9496-1.8651-2.2754-1.7617-0.16601 0.05269-0.48035-0.04932-0.69922-0.22656-0.34271-0.27751-0.36964-0.37622-0.18945-0.71289 0.33296-0.62216 0.16771-1.3008-0.38086-1.5625-0.57445-0.27406-0.57926-0.31142-0.13086-1.0469 0.22174-0.36368 0.34961-0.8825 0.34961-1.418 0-0.63429 0.0899-0.92661 0.36523-1.1758 0.6697-0.60606 0.73599-0.91001 0.32422-1.4883-0.27583-0.38731-0.34381-0.65699-0.25391-1.002 0.0676-0.2597 0.17529-1.0698 0.23829-1.8008 0.1622-1.882 0.97053-3.076 2.8535-4.207 0.5153-0.30954 1.1342-0.74074 1.375-0.95898 0.54801-0.4967 3.4909-1.6079 4.8477-1.8301 0.5607-0.0918 1.7631-0.16741 2.6719-0.16797 1.4524-8.92e-4 1.702-0.04768 2.0566-0.38086 0.36446-0.34239 0.43246-0.35321 0.71094-0.11328 0.29842 0.25711 5.593 0.95776 5.7852 0.76562 0.25533-0.25532-0.19935-0.9629-0.79102-1.2324-1.2362-0.56313-3.8102-1.8794-4.043-2.0684-0.1539-0.12494-0.19514-0.38492-0.12304-0.76953l0.10937-0.58008zm23.051 30.756c-0.44042-0.0043-0.8386 0.01922-1.1504 0.07617-0.39611 0.07236-1.43 0.18408-2.2969 0.24805-1.7351 0.12799-3.5948 0.63125-4.2598 1.1543-0.23596 0.1856-0.63484 0.3421-0.88672 0.3457-0.25189 0.0039-0.73098 0.24035-1.0644 0.52539-0.33347 0.28504-0.71066 0.51758-0.83985 0.51758-0.12917 0-0.78815 0.44015-1.4629 0.97852-1.0648 0.84955-1.4572 1.3287-1.5332 1.8691-0.0102 0.07289-0.21688 0.52226-0.45898 1-0.32551 0.64235-0.43946 1.1444-0.43946 1.9258 0 0.98573 0.0266 1.0566 0.40235 1.0566 0.22153 0 0.48924 0.08494 0.59375 0.18945 0.37435 0.37436 2.0151-0.82925 2.2148-1.625 0.0684-0.27269 0.33638-0.55452 0.68359-0.71875 0.83676-0.3958 2.1009-0.81751 2.4609-0.82031 0.17238-0.0014 0.63437-0.16671 1.0273-0.36719 0.69106-0.35254 0.75448-0.3553 1.9473-0.08594 1.064 0.2403 1.2862 0.245 1.6094 0.0332 0.6497-0.4257 2.0588-0.82727 2.5352-0.72266 0.25191 0.05532 0.55713 0.26079 0.67969 0.45703 0.19863 0.31806 0.15286 0.421-0.42383 0.94922-0.3558 0.3259-0.88964 0.64552-1.1875 0.71094-0.29785 0.06542-0.72687 0.24043-0.95312 0.38867-0.2574 0.16866-0.94697 0.29366-1.8418 0.33398-0.7865 0.03544-1.7456 0.14931-2.1309 0.25195-0.98916 0.26352-2.198 0.84672-2.2988 1.1094-0.17899 0.46644-2.2066 1.1079-3.8144 1.207-1.6154 0.09963-1.9747 0.24244-1.7949 0.71094 0.0848 0.22101 0.41075 0.27344 1.6777 0.27344 1.4811 0 2.4668 0.22218 2.4668 0.55469 0 0.33091 1.3996 0.11911 2.3789-0.35938 0.56921-0.27811 1.4683-0.55669 1.998-0.61914s1.4358-0.19678 2.0137-0.29883c2.0588-0.36354 3.4382-0.17124 4.9473 0.6875 0.47426 0.26986 0.51847 0.92306 0.0879 1.3027-0.63664 0.56136-2.0069 1.0491-2.6562 0.94531-0.82358-0.13168-1.416 0.03365-1.416 0.39648 0 0.36144 1.8869 2.2324 2.3652 2.3457 0.77794 0.1842 2.0817 0.10816 2.6348-0.1543 0.56132-0.26636 1.5122-1.303 1.4629-1.5957-0.0657-0.39055 0.0881-0.59483 0.875-1.1602 0.61164-0.43942 0.91873-0.80939 1.0703-1.2871 0.32143-1.0129 0.63534-1.4183 1.4004-1.8086 0.49328-0.25166 0.82087-0.59895 1.1211-1.1914 0.42199-0.8329 0.42097-0.83889 0.082-1.2676-0.28957-0.36619-0.32261-0.60007-0.22851-1.5684 0.0608-0.62606 0.2015-1.3751 0.31445-1.6641 0.32619-0.83446 0.22579-2.2238-0.21289-2.9336-0.45466-0.73565-0.6582-0.83008-1.7812-0.83008-0.46803 0-0.90214-0.0841-0.96484-0.18555-0.0627-0.10145-0.5605-0.38373-1.1055-0.62891-0.83222-0.37441-2.5264-0.63948-3.8477-0.65234zm19.105 2.5996c-0.1801-0.08356-0.39522 0.01596-0.67969 0.2832-0.25445 0.23904-0.67115 0.41859-0.99805 0.42969-0.30866 0.01056-0.97507 0.03208-1.4805 0.04883-0.77772 0.0258-1.0209 0.12391-1.582 0.63086-1.0158 0.91771-1.7305 2.5258-1.2539 2.8203 0.10145 0.06269 0.37174 0.53895 0.60156 1.0586 0.22981 0.51964 0.62054 1.2098 0.86719 1.5332 0.24664 0.32336 0.44726 0.74593 0.44726 0.9375 0 0.19157 0.053 0.40063 0.11719 0.46484 0.3407 0.3407 1.431-0.14605 1.5703-0.70117 0.1361-0.54221 0.32594-0.5145 0.79297 0.11719 0.51641 0.69849 1.2238 0.71768 1.5488 0.04297 0.26758-0.55535 0.49553-1.8779 0.62695-3.6328 0.0505-0.67421 0.17777-1.4018 0.28321-1.6152 0.12534-0.25378 0.1346-0.46426 0.0234-0.61133-0.0935-0.12368-0.27964-0.5687-0.4121-0.98828-0.14766-0.46772-0.29256-0.7348-0.47266-0.81836zm-76.316 13.842c-1.8063 0-2.5294 0.28552-3.8809 1.5312-1.0497 0.96761-1.3141 1.6515-1.3457 3.4746-0.0259 1.4987-0.0235 1.508 0.60742 2.207 0.34862 0.38627 0.66779 0.80397 0.70899 0.92773 0.11705 0.35116 0.77269-0.07567 1.291-0.83984 1.0442-1.5395 1.3061-1.9053 1.748-2.4434 0.77701-0.94601 1.0776-0.74807 1.4824 0.97656 0.18437 0.7855 0.30819 0.97391 0.79297 1.2051 0.54262 0.25875 0.60549 0.25364 1.1016-0.09961 0.64511-0.45936 0.75317-0.46108 1.5957-0.03125 0.99881 0.50956 1.1225 1.0378 0.52929 2.2656-0.20869 0.43192-0.591 0.87046-0.90429 1.0391-0.7657 0.41207-1.6226 1.2467-1.9551 1.9043-0.16495 0.32619-0.28321 0.98777-0.28321 1.584 0 0.56342-0.0924 1.1158-0.20507 1.2285-0.15647 0.15643-0.148 0.37475 0.0332 0.92383 0.19811 0.59798 0.19968 0.7435 6e-3 0.86328-0.1279 0.07923-0.18927 0.2602-0.13477 0.40234 0.11488 0.29941 2.0381 0.6039 2.209 0.34961 0.19847-0.29529 1.5022-0.90042 2.1211-0.98438 0.33711-0.04573 0.93999-0.13933 1.3398-0.20703 0.63379-0.10732 0.7535-0.07333 0.92969 0.25586 0.11165 0.20768 0.15712 0.51474 0.10352 0.68359-0.15214 0.47932 1.2218 1.7117 2.3574 2.1152h2e-3c1.2241 0.43421 1.3965 0.43946 1.3965 0.0332 0-0.19637-0.43231-0.68179-1.0508-1.1816-1.0783-0.87144-1.2811-1.1663-0.74414-1.0762 0.23755 0.03989 0.31837-0.09071 0.35937-0.58203 0.0447-0.53473-0.0114-0.65053-0.35156-0.74609-0.39926-0.11215-0.39953-0.11587-0.0527-0.38086 0.22729-0.17369 0.36046-0.49687 0.37696-0.91797 0.014-0.35688 0.0711-1.342 0.1289-2.1895 0.0904-1.3265 0.0567-1.635-0.24414-2.2246-0.19219-0.37671-0.34961-0.92596-0.34961-1.2188 0-0.47319-0.0567-0.53125-0.51758-0.53125-0.64679 0-1.1618-0.52942-1.3164-1.3535-0.18747-0.99926 0.16356-1.196 1.1738-0.6582 1.0755 0.57252 1.4336 0.57405 1.291 0.0059-0.21315-0.84926-0.44103-1.2443-1.0684-1.8477-0.35047-0.33711-0.85598-0.83558-1.125-1.1074-0.63928-0.64599-1.3096-0.98169-2.3418-1.1777-0.46206-0.08775-1.2886-0.43408-1.8379-0.76953-2.3329-1.4247-2.2848-1.4082-3.9766-1.4082zm64.395 5.2988c-0.1952 0.02803-0.44205 0.11024-0.73242 0.25391-0.4125 0.20409-1.1242 0.83123-1.623 1.4316-0.48842 0.58782-1.1933 1.2949-1.5664 1.5703-0.37314 0.27538-0.79614 0.72678-0.93945 1.0039-0.30484 0.58951-2.5799 2.5677-3.4316 2.9844-0.32326 0.15814-0.88479 0.42071-1.25 0.58203-0.36522 0.16132-1.0583 0.64136-1.5391 1.0684-0.48078 0.427-1.026 0.77734-1.2109 0.77734-0.53586 0-1.1715 0.35547-1.4004 0.7832-0.17137 0.32019-0.15843 0.49698 0.0684 0.93555 0.15373 0.29728 0.2793 0.65588 0.2793 0.79688 0 0.23797-1.132 1.0414-2.3633 1.6777-0.67478 0.34869-0.77009 1.1116-0.29102 2.3496 0.19158 0.49508 0.4002 1.1323 0.46289 1.416 0.0626 0.28371 0.34458 0.77799 0.62696 1.0996 0.28239 0.32162 0.51748 0.68178 0.52148 0.79883 0.0418 1.3439 0.43565 2.296 1.0293 2.4844 0.43636 0.13848 0.61388 0.67501 0.37305 1.125-0.26778 0.50036-0.22274 0.74392 0.24218 1.3125 0.43629 0.53354 1.2143 0.75941 3.0039 0.875 0.55682 0.03596 1.1807 0.22694 1.6641 0.50977 0.42519 0.24879 1.443 0.62224 2.2617 0.82812 0.8187 0.20588 1.6453 0.44058 1.8379 0.52148 0.19264 0.08087 0.4688 0.14438 0.61328 0.14258 0.14447-0.0018 1.2075 0.16986 2.3633 0.38086 1.1558 0.211 2.7915 0.45293 3.6348 0.53711 0.8433 0.08421 1.6817 0.232 1.8613 0.32812 0.17963 0.09614 0.67191 0.2614 1.0938 0.36719 0.42181 0.10578 1.0021 0.25935 1.291 0.3418 1.0867 0.31006 1.5155 0.15533 2.002-0.7207 0.59797-1.0768 0.83515-1.3409 1.5762-1.748 0.85672-0.47076 2.1796-1.5398 2.6562-2.1484 0.28351-0.36201 0.42752-0.85638 0.51562-1.752 0.0675-0.68591 0.28293-1.6792 0.47852-2.209 0.41468-1.1232 0.63423-2.9137 0.64453-5.2617 6e-3 -1.4355-0.0515-1.7836-0.41211-2.4629-0.59909-1.1286-0.43286-1.8642 0.61719-2.7246 1.2991-1.0645 2.2915-3.1955 1.5976-3.4316-0.12038-0.04097-0.48186-0.0019-0.80273 0.08594-0.3768 0.10309-0.77409 0.09362-1.1211-0.02734-0.29548-0.10301-0.91347-0.1875-1.375-0.1875-0.46152 0-0.88777-0.07946-0.94727-0.17578-0.13366-0.21626-1.7821-0.23299-1.9141-0.01953-0.20469 0.3312-1.6168 0.38833-2.3965 0.09766-1.8245-0.68018-2.4317-0.77713-3.7109-0.5957-0.67816 0.09618-1.3249 0.25224-1.4375 0.3457-0.11263 0.09346-0.25541 0.11964-0.31641 0.05859-0.0611-0.06105-0.21754-0.02399-0.34766 0.08398-0.17515 0.14537-0.37884 0.14239-0.78711-0.01172-0.42753-0.16143-0.68435-0.16038-1.1387 0.0039-0.83314 0.30126-1.0614 0.26737-1.4824-0.2168-0.29239-0.33627-0.3804-0.68743-0.4082-1.6406-0.0325-1.1136 0.0163-1.298 0.58984-2.2422 0.34385-0.56603 0.82787-1.2218 1.0762-1.4551 0.65769-0.61788 0.54851-1.0118-0.0371-0.92774zm-3.5996 8.1465c0.43612 0.02945 0.92572 0.44026 1.5078 1.2324 1.0563 1.4375 1.7151 1.9978 2.5234 2.1465 0.36845 0.06778 1.0786 0.30826 1.5781 0.53516 0.49948 0.2269 1.1132 0.41406 1.3633 0.41406 0.6615-1e-6 1.6115 0.43931 1.8301 0.84766 0.29639 0.55383 0.22182 0.95545-0.26758 1.4199-0.35476 0.33776-0.43348 0.54548-0.36328 0.97852 0.20731 1.2775-1.2718 2.6386-2.7949 2.5723-0.40683-0.01771-1.0192 0.08444-1.3594 0.22656-0.34017 0.14213-0.92541 0.25781-1.3008 0.25781-0.39824 0-0.85591 0.13644-1.0996 0.32617-0.61139 0.47601-2.1021 1.1093-2.6074 1.1074-0.24079-9.18e-4 -0.77259 0.15561-1.1836 0.34961-0.41098 0.194-1.0615 0.39605-1.4434 0.44727-1.0783 0.14462-1.116-0.31003-0.11133-1.3301 0.6132-0.62256 0.8125-0.95615 0.8125-1.3652 0-0.68022-0.31062-0.94137-1.2637-1.0625-1.4063-0.17874-1.5544-0.77405-0.52344-2.0898 1.0845-1.384 1.4446-2.0854 1.5566-3.0312 0.0913-0.77122 0.20856-0.9854 0.84375-1.5449 0.40545-0.35714 0.90624-0.98254 1.1133-1.3887 0.37101-0.7278 0.75334-1.0783 1.1894-1.0488zm10.355 8.207c0.29073-0.03157 0.56249 0.04817 0.81641 0.24023 0.18696 0.14141 0.6242 0.25781 0.97266 0.25781 1.333 0 1.6404 0.9634 0.54296 1.7012-0.58081 0.39049-0.92129 0.48886-1.0957 0.31445-0.0475-0.04748-0.51058-0.16762-1.0273-0.26562-1.7903-0.33953-2.2104-1.0049-1.1465-1.8164 0.33577-0.2561 0.64678-0.40007 0.9375-0.43164zm-4.207 5.502c0.35486 0.15834 2.3362 0.40293 4.332 0.53516 1.5919 0.10546 1.8886 0.28367 2.3809 1.4238 0.36545 0.84647 0.30172 1.1885-0.24804 1.3359-0.69113 0.18536-3.0596 0.0059-3.375-0.25586-0.10751-0.08927-0.38442-0.15196-0.61524-0.13867-0.23081 0.01325-1.0288-0.14382-1.7734-0.34961-1.5301-0.42283-2.1799-0.45523-3.7285-0.18555-2.0369 0.35471-3.0457-0.25842-2.2637-1.375 0.45881-0.65503 0.90291-0.8006 1.7324-0.56836 0.63799 0.17863 0.90701 0.15501 1.9961-0.17578 0.75173-0.22835 1.3809-0.32709 1.5625-0.24609z" fill="#242c4f"/></g></g><style>.st0{filter:url(#b);} .st1{fill:#FFFFFF;} .st2{mask:url(#d);fill:#FFFFFF;}</style></svg>
