<?xml version="1.0" encoding="UTF-8" standalone="no"?>
<svg
   id="Layer_1"
   viewBox="0 0 156.63401 156.63405"
   enable-background="new 0 0 542 157"
   version="1.1"
   sodipodi:docname="peronbw.svg"
   xml:space="preserve"
   inkscape:export-filename="overleafkike.svg"
   inkscape:export-xdpi="96"
   inkscape:export-ydpi="96"
   width="156.634"
   height="156.63405"
   inkscape:version="1.3.2 (091e20e, 2023-11-25, custom)"
   xmlns:inkscape="http://www.inkscape.org/namespaces/inkscape"
   xmlns:sodipodi="http://sodipodi.sourceforge.net/DTD/sodipodi-0.dtd"
   xmlns="http://www.w3.org/2000/svg"
   xmlns:svg="http://www.w3.org/2000/svg"><defs
     id="defs2"><defs
       id="defs1"><filter
         id="Adobe_OpacityMaskFilter"
         filterUnits="userSpaceOnUse"
         x="0"
         y="0.30000001"
         width="299.20001"
         height="156.7"><feColorMatrix
           values="1 0 0 0 0 0 1 0 0 0 0 0 1 0 0 0 0 0 1 0"
           id="feColorMatrix1" /></filter></defs><mask
       maskUnits="userSpaceOnUse"
       x="0"
       y=".3"
       width="299.2"
       height="156.7"
       id="mask-2"><g
         class="st0"
         id="g1"><path
           id="path-1"
           class="st1"
           d="M 299.2,156.9 H 0.1 V 0.3 h 299.1 z" /></g></mask></defs><sodipodi:namedview
     id="namedview1"
     pagecolor="#ffffff"
     bordercolor="#000000"
     borderopacity="0.25"
     inkscape:showpageshadow="2"
     inkscape:pageopacity="0.0"
     inkscape:pagecheckerboard="0"
     inkscape:deskcolor="#d1d1d1"
     inkscape:zoom="2.56"
     inkscape:cx="161.13281"
     inkscape:cy="45.507813"
     inkscape:window-width="1920"
     inkscape:window-height="1009"
     inkscape:window-x="1912"
     inkscape:window-y="-8"
     inkscape:window-maximized="1"
     inkscape:current-layer="Layer_1" /><style
     id="style1">.st0{filter:url(#Adobe_OpacityMaskFilter);} .st1{fill:#FFFFFF;} .st2{mask:url(#mask-2);fill:#FFFFFF;}</style><path
     style="fill:#9b9b9b;fill-opacity:1"
     d="m 16.934015,142.49267 0.005,-14.14135 1.004585,-0.73885 c 1.292783,-0.95082 3.249571,-2.21177 5.430363,-3.4993 2.271304,-1.34097 2.821859,-1.71492 3.696269,-2.51061 0.40123,-0.36511 1.32827,-1.18329 2.06008,-1.81817 1.95015,-1.69185 4.36031,-4.47836 5.00437,-5.78582 0.30921,-0.62769 0.731473,-1.33169 0.938373,-1.56443 0.2192,-0.24658 0.32568,-0.55474 0.25517,-0.73849 -0.08,-0.20844 0.17267,-0.65907 0.74535,-1.3294 0.4765,-0.55775 0.86636,-1.17948 0.86636,-1.38163 0,-1.05255 2.7839,-4.01028 5.50637,-5.85018 1.25117,-0.84557 1.98917,-1.47481 2.06594,-1.76149 0.17132,-0.63972 0.15172,-1.26594 -0.0517,-1.651258 -0.097,-0.18378 -0.28451,-0.62478 -0.41668,-0.98001 -0.24646,-0.66239 -2.38077,-2.98297 -3.27302,-3.55864 l -0.49863,-0.32172 -0.14882,-4.08692 c -0.0819,-2.2478 -0.13101,-5.9614 -0.10924,-8.25244 0.0426,-4.481735 -0.12428,-5.80283 -1.07338,-8.49788 -0.2538,-0.720686 -0.46146,-1.560726 -0.46146,-1.866756 0,-0.991646 -0.42695,-2.383757 -1.82883,-5.963098 -0.6998,-1.786758 -1.40114,-4.394993 -1.72593,-6.418635 -0.0485,-0.302318 -0.172193,-0.650848 -0.274823,-0.77451 -0.10263,-0.123663 -0.24016,-0.698928 -0.30562,-1.278369 -0.12887,-1.140714 -0.20676,-1.514617 -0.98103,-4.709604 -0.50697,-2.091995 -0.51282,-2.195203 -0.50192,-8.851553 0.009,-5.491418 0.0664,-6.930278 0.31078,-7.793218 0.16486,-0.58208 0.30594,-1.53459 0.31351,-2.11667 0.008,-0.58209 0.0948,-1.4913 0.19384,-2.02047 0.0991,-0.52916 0.25886,-1.43837 0.35514,-2.02046 0.0963,-0.58208 0.39973,-1.72304 0.67435,-2.53545 0.274623,-0.81242 0.499303,-1.64397 0.499303,-1.8479 0,-0.77241 0.93645,-2.90045 2.06276,-4.68753 0.64299,-1.02022 1.22113,-2.01894 1.28474,-2.21936 0.0636,-0.20043 0.37874,-0.51983 0.70029,-0.70977 0.32154,-0.18994 0.81085,-0.70657 1.08735,-1.14807 0.2765,-0.44151 0.56044,-0.84603 0.63098,-0.89895 0.0705,-0.0529 0.39531,-0.48587 0.72172,-0.96212 0.3264,-0.47626 0.8719,-1.12569 1.2122,-1.44319 0.34031,-0.3175 1.24526,-1.36001 2.01101,-2.31668 1.44676,-1.8074798 1.8209,-2.0674798 4.81705,-3.3474798 0.52917,-0.22607 1.46593,-0.66771 2.08169,-0.98141 0.61577,-0.31371 1.29115,-0.57037 1.50085,-0.57037 0.20971,0 0.63339,-0.13037 0.94152,-0.28971 0.69572,-0.35977 3.04774,-0.86493 4.11052,-0.88285 1.03274,-0.0174 3.82728,-0.49971 4.93139,-0.85109 0.47625,-0.15157 1.47205,-0.35651 2.21289,-0.45542 0.74084,-0.0989 2.16959,-0.36787 3.17501,-0.59768 1.00542,-0.22981 2.30438,-0.47903 2.88658,-0.55383 0.58219,-0.0748 1.15935,-0.1983 1.28257,-0.27446 0.12449,-0.0769 0.49405,0.0887 0.83167,0.37282 0.59416,0.49996 0.62118,0.50415 1.21895,0.18933 0.33623,-0.17707 0.89591,-0.52996 1.24374,-0.7842 0.63883,-0.46693 2.09478,-0.87597 3.11799,-0.87597 0.30605,0 0.60636,-0.0807 0.66736,-0.17946 0.061,-0.0987 0.34753,-0.1782 0.63674,-0.17667 0.2892,0.002 0.91548,-0.0833 1.39174,-0.18842997 0.47625,-0.10518 1.38546,-0.2908 2.02046,-0.41249 0.635,-0.1217 1.52381,-0.30251 1.97512,-0.40181 0.45131,-0.0993 1.38609,-0.18053999904293 2.07729,-0.18053999904293 h 1.25672 L 89.177345,0.63772923 c -0.0793,0.42261997 -0.0335,0.70758997 0.1356,0.84487997 0.25579,0.20762 3.08426,1.65572 4.44257,2.27449 0.65013,0.29615 1.14839,1.07364 0.86784,1.35419 -0.21112,0.21112 -6.02816,-0.55928 -6.35606,-0.84179 -0.306,-0.26364 -0.38163,-0.25159 -0.7821,0.12463 -0.38969,0.3661 -0.66307,0.41664 -2.25898,0.41762 -0.9986,6.1e-4 -2.31973,0.0837 -2.93584,0.18457 -1.49084,0.24416 -4.72387,1.46438 -5.32604,2.01016 -0.26458,0.23981 -0.94433,0.71429 -1.51055,1.05441 -2.06903,1.24281 -2.95908,2.5540598 -3.13731,4.6219698 -0.0692,0.80321 -0.18667,1.69387 -0.26099,1.97923 -0.0987,0.37905 -0.0234,0.67578 0.27968,1.10136 0.45245,0.63541 0.37981,0.96895 -0.35606,1.63489 -0.30253,0.27379 -0.40267,0.59511 -0.40267,1.29207 0,0.58838 -0.14049,1.15807 -0.38413,1.55768 -0.49271,0.80812 -0.48761,0.84899 0.1436,1.15013 0.60278,0.28757 0.78507,1.03486 0.4192,1.71849 -0.19798,0.36994 -0.16919,0.47874 0.20738,0.78367 0.24051,0.19475 0.58654,0.30672 0.76896,0.24882 0.35791,-0.11359 2.50107,1.5454 2.50107,1.93605 0,0.11954 -0.17319,0.37407 -0.38485,0.56563 -0.59127,0.53509 -0.48644,1.32964 0.28863,2.18755 0.37042,0.41001 0.67349,0.84246 0.67349,0.96101 0,0.11855 -0.2861,0.59037 -0.63579,1.04848 -0.34969,0.45811 -0.75254,1.11478 -0.89523,1.45927 -0.24133,0.58262 -0.22717,0.65682 0.20284,1.06309 0.55386,0.52329 2.118,1.12785 2.51944,0.97381 0.15757,-0.0605 0.4005,0.0274 0.53984,0.19534 0.21612,0.2604 0.16747,0.39606 -0.33093,0.92278 -0.79378,0.8389 -1.01532,1.32276 -1.01532,2.21763 0,0.59376 0.1287,0.88534 0.58971,1.33606 0.57345,0.56066 0.58205,0.59485 0.31195,1.24129 -0.15276,0.3656 -0.52637,0.85152 -0.83023,1.0798 -1.05973,0.796134 -1.07903,0.827307 -0.96273,1.554611 0.0824,0.515047 -0.0113,0.94822 -0.35849,1.65713 -0.47852,0.977197 -0.66588,2.843927 -0.30767,3.065314 0.0959,0.05927 0.12869,0.282381 0.0729,0.495806 -0.0613,0.234262 0.0984,0.690105 0.40291,1.150234 0.27742,0.419202 0.50439,0.863961 0.50439,0.988351 0,0.124391 -0.31224,0.784513 -0.69388,1.466938 l -0.69388,1.240773 -1.00466,-0.125525 c -1.33529,-0.166833 -1.83729,0.211888 -1.98194,1.495227 -0.19815,1.757916 -1.2845,2.025669 -3.57977,0.882305 -0.61767,-0.307686 -1.40208,-0.559429 -1.74314,-0.559429 -0.36491,0 -1.07097,-0.271494 -1.71564,-0.659695 -2.25201,-1.356091 -5.14957,-2.585067 -6.48262,-2.749556 -0.37042,-0.04571 -1.01985,-0.242907 -1.44319,-0.438221 -1.05166,-0.485205 -3.42142,-1.348005 -3.70242,-1.348005 -0.12608,0 -0.5136,0.1204 -0.86115,0.267556 -0.34755,0.147156 -1.1216,0.35734 -1.7201,0.467075 -1.81635,0.333024 -3.10166,1.037641 -4.04137,2.215502 -0.45959,0.576067 -1.07252,1.191218 -1.36206,1.367002 -0.39675,0.240865 -0.62042,0.637329 -0.90786,1.609206 -0.33363,1.128046 -0.72414,3.61168 -0.74736,4.75325 -0.004,0.211668 -0.0682,0.801361 -0.14207,1.310431 -0.0804,0.554377 -0.0513,1.09458 0.0725,1.346975 0.11373,0.231767 0.23843,0.940943 0.2771,1.575946 0.0735,1.206773 0.50775,2.285369 1.78186,4.425776 0.378,0.635003 0.8236,1.45762 0.99023,1.828038 0.75221,1.672167 0.96153,1.983871 1.99286,2.967592 0.60253,0.574716 1.38558,1.505932 1.74011,2.069368 1.33388,2.119858 2.80101,3.947122 4.04302,5.035475 1.54522,1.354053 3.46073,2.598663 4.51091,2.930993 0.94035,0.29757 3.14821,1.17482 3.60536,1.43252 1.03793,0.58509 3.20175,-0.17982 3.83174,-1.35451 0.72831,-1.35801 2.01425,-2.30563 3.12878,-2.30563 0.40544,0 0.50063,0.1211 0.6428,0.8178 0.14591,0.715 0.22595,0.81154 0.63671,0.76795 0.26279,-0.0279 0.71118,-0.34581 1.01756,-0.72147 0.30125,-0.36939 0.61616,-0.62933 0.69979,-0.57765 0.0836,0.0517 0.25266,-0.0272 0.37562,-0.17541 0.1372,-0.16531 0.1522,-0.3135 0.0388,-0.38356 -0.11652,-0.072 -0.10886,-0.315192 0.0207,-0.65855 0.18275,-0.484149 0.29933,-0.544372 1.05376,-0.544372 0.77948,0 0.87683,0.05593 1.20016,0.689523 0.19353,0.379239 0.72912,1.041009 1.19021,1.470599 0.46108,0.4296 0.93071,0.94336 1.04361,1.14169 0.19803,0.34786 0.21999,0.34591 0.62102,-0.0551 0.22865,-0.22865 0.36829,-0.53936 0.31031,-0.69046 -0.2229,-0.58085 2.41311,-0.70963 5.02099,-0.24529 1.12531,0.20037 1.33694,0.29702 1.286,0.5873 -0.0384,0.21872 0.0196,0.29768 0.15645,0.21309 0.11958,-0.0739 0.38842,0.0204 0.59743,0.20954 0.27999,0.25338 0.34874,0.48631 0.26119,0.88492 -0.0915,0.41658 -0.0378,0.57091 0.23324,0.67101 0.19364,0.0715 0.6441,0.34956 1.00103,0.61793 0.50365,0.37869 0.84833,0.47973 1.5394,0.45128 1.01149,-0.0417 1.3105,0.095 1.63425,0.74684 0.12537,0.25242 0.42061,0.48662 0.65609,0.52044 0.29325,0.0421 0.42814,0.19402 0.42814,0.48214 0,0.2455 0.28043,0.65447 0.67349,0.9822 0.37041,0.30885 0.67348,0.71662 0.67348,0.90617 0,0.38101 0.6696,0.82759 0.96611,0.64434 0.31223,-0.19297 0.21284,-0.65253 -0.19641,-0.90811 -0.47968,-0.29957 -0.49259,-0.76032 -0.0329,-1.17628 0.74324,-0.67263 1.64473,-0.19715 1.88276,0.99303 0.0838,0.41878 0.23317,0.61276 0.472,0.61276 0.19219,0 0.40376,0.0879 0.47016,0.19534 0.24054,0.38919 1.51234,0.76678 2.58266,0.76678 0.64297,0 1.24833,0.11291 1.4678,0.27377 0.21931,0.16075 0.59179,0.2303 0.902215,0.16847 0.29267,-0.0583 0.65665,8.9e-4 0.81531,0.13257 0.40707,0.33784 1.04454,0.12223 1.96298,-0.66391 1.14403,-0.97925 2.37923,-0.9014 2.20801,0.13916 -0.0307,0.18629 0.12456,0.56791 0.34492,0.84805 0.22603,0.28734 0.35383,0.65683 0.29324,0.84776 -0.0591,0.18613 -0.0173,0.39411 0.0928,0.46218 0.11014,0.0681 0.20025,0.33513 0.20025,0.59347 0,0.2732 0.11214,0.46971 0.26805,0.46971 0.34438,0 0.57223,0.58367 0.32454,0.83135 -0.12469,0.12469 -0.12311,0.31421 0.005,0.55284 0.14718,0.27501 0.0978,0.51938 -0.20372,1.00716 -0.21892,0.35423 -0.34782,0.77495 -0.28643,0.93493 0.0614,0.15998 0.0191,0.34803 -0.0939,0.4179 -0.31985,0.19768 -0.24198,0.68068 0.1312,0.81372 0.18521,0.066 0.45581,0.21278 0.60133,0.32612 0.14553,0.11335 0.50649,0.18071 0.80214,0.1497 0.43678,-0.0458 0.63065,0.0806 1.03428,0.67463 0.2732,0.402058 0.49858,0.905738 0.50084,1.119298 0.005,0.46904 1.42325,1.5308 1.83417,1.37311 0.1563,-0.06 0.36732,-0.32774 0.46895,-0.59504 0.24032,-0.63209 0.77158,-0.6433 0.77158,-0.0163 0,0.25834 -0.0785,0.5182 -0.17436,0.57747 -0.0959,0.0593 -0.1291,0.28086 -0.0738,0.49242 0.11306,0.43237 0.57336,0.49124 1.28953,0.16494 0.71316,-0.32494 1.34963,0.17261 1.74553,1.36455 0.39042,1.17544 1.04903,1.74154 2.02614,1.74154 0.85771,0 2.08794,0.47728 2.23796,0.86824 0.1386,0.36117 1.3106,0.68256 1.99208,0.54626 0.29471,-0.0589 0.58978,-0.0119 0.66237,0.10552 0.19133,0.30956 0.81873,0.25869 0.94748,-0.0768 0.0609,-0.15875 0.28667,-0.28864 0.50165,-0.28864 0.25865,0 0.39089,-0.12636 0.39089,-0.37349 0,-0.45339 0.24538,-0.63008 0.65613,-0.47246 0.18431,0.0707 0.306,0.34384 0.306,0.68677 0,0.31313 0.0975,0.75162 0.21679,0.97441 0.17714,0.33098 0.15263,0.45198 -0.13398,0.66155 -0.28005,0.20478 -0.30242,0.30484 -0.11095,0.4963 0.13189,0.1319 0.30042,0.24552 0.3745,0.25251 0.0741,0.007 0.43777,0.14721 0.80819,0.31161 1.55108,0.68842 2.13629,0.81024 4.42578,0.92127 1.32292,0.0642 2.55685,0.18743 2.74206,0.27393 0.34396,0.16065 0.45207,0.70459 0.19242,0.96817 -0.0794,0.0806 -0.14432,0.46076 -0.14432,0.84485 0,0.58579 -0.093,0.74321 -0.57727,0.97674 -1.56907,0.75668 -6.26745,4.43534 -9.21502,7.215 -0.5174,0.48793 -1.04161,0.88715 -1.16491,0.88715 -0.12329,0 -0.52258,0.31174 -0.8873,0.69276 -0.36472,0.38102 -1.44245,1.34948 -2.39496,2.15213 -0.9525,0.80265 -1.79521,1.56283 -1.87269,1.68929 -0.0775,0.12645 -0.98668,0.87833 -2.02046,1.67084 -1.03378,0.79251 -3.00529,2.56759 -4.38113,3.94461 -1.37584,1.37703 -2.7615,2.63522 -3.07925,2.79599 -0.31775,0.16077 -0.74545,0.47764 -0.95044,0.70415 -0.28064,0.3101 -0.50608,0.38255 -0.9126,0.29326 -0.44769,-0.0983 -0.56967,-0.0403 -0.71429,0.34013 -0.0979,0.25745 -0.10549,0.83394 -0.0173,1.31395 0.12002,0.65352 0.0943,0.89072 -0.10909,1.00569 -0.29771,0.1683 -0.70553,1.00249 -1.05534,2.15864 -0.34871,1.15255 -1.39043,2.77121 -2.45475,3.81426 -0.86062,0.84343 -1.00622,0.91635 -1.599605,0.80112 -0.50152,-0.0974 -0.78506,-0.33297 -1.22352,-1.01661 -0.31389,-0.48942 -0.81179,-1.16442 -1.10644,-1.50001 -0.29465,-0.33559 -0.53573,-0.74918 -0.53573,-0.91909 0,-0.16991 -0.33232,-0.51871 -0.73849,-0.77512 -0.40617,-0.2564 -1.12055,-0.91544 -1.58751,-1.46452 -1.60324,-1.88521 -5.65997,-5.9193 -6.25353,-6.21863 -0.32664,-0.16473 -0.82895,-0.60768 -1.11624,-0.98433 -0.28845,-0.37817 -0.69287,-0.68483 -0.90316,-0.68483 -0.21654,0 -1.29729,-0.85088 -2.50523,-1.97236 -1.16842,-1.0848 -2.70282,-2.38888 -3.40978,-2.89796 -1.69983,-1.22404 -1.69529,-1.21854 -1.33642,-1.61948 0.16801,-0.18771 0.36424,-0.73888 0.43606,-1.22481 0.12663,-0.8567 0.11221,-0.89113 -0.47467,-1.13423 -0.4544,-0.18822 -0.66013,-0.19582 -0.82546,-0.0305 -0.12111,0.12112 -0.59229,0.22021 -1.04707,0.22021 -0.68501,0 -0.96371,-0.12363 -1.62441,-0.72052 -1.42967,-1.29162 -1.68726,-1.88553 -1.67784,-3.86844 0.005,-0.95718 -0.047,-1.82979 -0.11461,-1.93915 -0.0676,-0.10935 -0.19443,-0.83688 -0.28189,-1.61674 -0.19639,-1.75119 -0.53594,-2.51253 -1.16002,-2.60097 -0.25702,-0.0364 -0.9878,-0.40444 -1.62396,-0.81781 -0.63616,-0.41337 -1.35153,-0.75158 -1.58971,-0.75158 -0.23982,0 -0.69506,-0.27903 -1.02027,-0.62538 l -0.58722,-0.62538 -0.5911,0.33584 c -0.57915,0.32905 -0.60384,0.32613 -1.22063,-0.14432 -0.35422,-0.27018 -0.88703,-0.48016 -1.21837,-0.48016 -0.51282,0 -0.6657,-0.13616 -1.184,-1.05454 -0.38888,-0.68905 -0.75637,-1.09501 -1.0603,-1.1713 -0.27327,-0.0686 -0.56368,-0.35464 -0.70403,-0.69346 -0.36225,-0.87455 -1.95364,-1.28429 -2.48789,-0.64056 -0.45829,0.55221 -1.09419,0.33393 -1.96168,-0.67339 -0.45566,-0.52912 -0.93088,-0.96208 -1.05604,-0.96213 -0.12516,-5e-5 -0.27764,-0.15786 -0.33884,-0.35069 -0.0612,-0.19282 -0.47835,-0.55438 -0.92699,-0.80345 -0.44864,-0.24908 -0.85901,-0.50486 -0.91192,-0.5684 -0.0529,-0.0635 -0.45807,-0.39711 -0.90033,-0.74127 -1.04166,-0.81058 -1.5494,-2.169728 -1.25049,-3.347348 0.21487,-0.84652 0.087,-1.38579 -0.53585,-2.26056 -0.4496,-0.6314 -2.2085,-1.28187 -2.95774,-1.09382 -0.43938,0.11027 -0.5132,0.2304 -0.5132,0.83515 0,0.81296 0.35765,2.90049 0.57022,3.32826 0.0792,0.15931 0.0786,0.41909 -10e-4,0.57728 -0.0799,0.15819 -0.38305,0.927998 -0.6737,1.710678 -0.29065,0.78269 -0.71069,1.60378 -0.93342,1.82465 -0.41534,0.41187 -1.46332,2.32918 -1.46332,2.67719 0,0.10677 0.93086,1.13008 2.06857,2.27401 1.13772,1.14394 2.32835,2.34372 2.64585,2.66618 0.3175,0.32245 1.73493,1.68985 3.14985,3.03866 1.41491,1.34881 3.44981,3.47367 4.52199,4.72191 1.07218,1.24824 2.72874,3.17015 3.68124,4.27093 0.95251,1.10077 2.94411,3.08054 4.42578,4.3995 1.48167,1.31896 3.38668,3.07903 4.23335,3.91127 2.28165,2.24276 7.56083,7.78251 7.9439,8.33599 0.18312,0.26458 0.65709,0.8227 1.05326,1.24026 0.39617,0.41756 0.72031,0.81743 0.72031,0.8886 0,0.1044 1.77226,2.51637 2.47673,3.37072 0.42657,0.51733 2.64743,3.96395 3.33779,5.18001 0.58122,1.02382 0.87531,1.87787 1.22584,3.55987 0.25364,1.21708 0.46185,2.45101 0.46269,2.74205 l 10e-4,0.52917 H 52.045955 16.929026 Z M 128.82291,89.859472 c -0.3175,-0.0906 -0.9565,-0.25981 -1.42,-0.37604 -0.46351,-0.11624 -1.00423,-0.29776 -1.2016,-0.4034 -0.19738,-0.10563 -1.11702,-0.26776 -2.04365,-0.36029 -0.92663,-0.0925 -2.72387,-0.35793 -3.99387,-0.58978 -1.27001,-0.23185 -2.43899,-0.41991 -2.59774,-0.41792 -0.15875,0.002 -0.46182,-0.0691 -0.67349,-0.15795 -0.21167,-0.0889 -1.12087,-0.34668 -2.02046,-0.5729 -0.89959,-0.22623 -2.01789,-0.63499 -2.4851,-0.90836 -0.53115,-0.31077 -1.2162,-0.52072 -1.82804,-0.56023 -1.96644,-0.12701 -2.82018,-0.37598 -3.29957,-0.96224 -0.51086,-0.62476 -0.5603,-0.89285 -0.26606,-1.44265 0.26462,-0.49445 0.069,-1.08343 -0.41048,-1.23559 -0.6523,-0.20703 -1.08642,-1.25393 -1.13231,-2.730612 -0.004,-0.12861 -0.26115,-0.522982 -0.57144,-0.876382 -0.31028,-0.3534 -0.6205,-0.897609 -0.68935,-1.209352 -0.0689,-0.311744 -0.29744,-1.011898 -0.50795,-1.555898 -0.5264,-1.360329 -0.42317,-2.197298 0.31828,-2.580442 1.35299,-0.699157 2.59774,-1.582946 2.59774,-1.84443 0,-0.154928 -0.13821,-0.548954 -0.30713,-0.875611 -0.2492,-0.481904 -0.26336,-0.675706 -0.0751,-1.027528 0.25153,-0.469999 0.95057,-0.860963 1.53938,-0.860963 0.20316,0 0.80161,-0.383883 1.32989,-0.853072 0.52828,-0.46919 1.28884,-0.998103 1.69014,-1.175363 0.4013,-0.177261 1.02024,-0.464461 1.37544,-0.638223 0.9359,-0.457848 3.4355,-2.632395 3.77047,-3.280154 0.15747,-0.304504 0.62176,-0.801219 1.03177,-1.103811 0.41001,-0.302592 1.18455,-1.078635 1.72122,-1.724541 0.54815,-0.659734 1.32932,-1.349306 1.78258,-1.57356 1.27624,-0.631432 1.8104,-0.163663 0.84683,0.74157 -0.27284,0.25632 -0.80521,0.974912 -1.18303,1.596872 -0.63026,1.037532 -0.68373,1.240872 -0.648,2.464464 0.0306,1.047382 0.12674,1.434612 0.44802,1.80411 0.46257,0.532005 0.71421,0.568704 1.62966,0.237673 0.49922,-0.18052 0.7799,-0.181446 1.24968,-0.0041 0.44861,0.169332 0.67332,0.172696 0.86578,0.01296 0.14297,-0.118647 0.31482,-0.160838 0.3819,-0.09376 0.0671,0.06708 0.22321,0.03793 0.34697,-0.06477 0.12375,-0.102705 0.83467,-0.273204 1.57983,-0.378886 1.4056,-0.199351 2.07238,-0.0922 4.07719,0.655188 0.85676,0.319397 2.40889,0.255498 2.63381,-0.108429 0.14496,-0.23455 1.95609,-0.215428 2.10295,0.0222 0.0654,0.105834 0.53385,0.192425 1.04098,0.192425 0.50713,0 1.18771,0.09261 1.51239,0.205792 0.38129,0.132918 0.81734,0.143685 1.23137,0.03041 0.35257,-0.09646 0.74928,-0.138558 0.88157,-0.09354 0.76245,0.259427 -0.32743,2.601549 -1.75492,3.771265 -1.15379,0.945445 -1.33698,1.753499 -0.67869,2.993614 0.39619,0.746374 0.46011,1.127964 0.45313,2.705349 -0.0114,2.580057 -0.25228,4.546936 -0.70794,5.781124 -0.21491,0.582081 -0.45138,1.674991 -0.5255,2.428671 -0.0968,0.98406 -0.25704,1.52647 -0.56855,1.92425 -0.5237,0.66873 -1.9758,1.84424 -2.91717,2.36152 -0.81424,0.44742 -1.07536,0.73683 -1.73241,1.92006 -0.53453,0.96259 -1.00538,1.13199 -2.19944,0.79129 z m 2.3439,-4.54054 c 0.60408,-0.16201 0.67392,-0.53861 0.27236,-1.46872 -0.54088,-1.25281 -0.86711,-1.4478 -2.61626,-1.56368 -2.19308,-0.14529 -4.36991,-0.41436 -4.75983,-0.58835 -0.19952,-0.089 -0.89106,0.0201 -1.71708,0.27101 -1.19668,0.36348 -1.49216,0.38952 -2.19319,0.19324 -0.91147,-0.25519 -1.39926,-0.0951 -1.9034,0.62465 -0.85935,1.2269 0.24894,1.89977 2.48713,1.51001 1.70165,-0.29633 2.41585,-0.2608 4.09709,0.20381 0.81827,0.22612 1.69527,0.39923 1.94889,0.38467 0.25362,-0.0146 0.55779,0.0537 0.67593,0.1518 0.34659,0.28764 2.94895,0.48523 3.70836,0.28156 z m -16.24988,-5.042897 c 0.4516,-0.213164 1.03756,-0.386746 1.30214,-0.385737 0.55521,0.0021 2.19242,-0.692959 2.86422,-1.216001 0.26778,-0.208484 0.77125,-0.35729 1.20884,-0.35729 0.41246,0 1.05573,-0.127773 1.4295,-0.283941 0.37376,-0.156167 1.04532,-0.268022 1.49235,-0.248566 1.67367,0.07284 3.29918,-1.423448 3.07138,-2.827219 -0.0772,-0.475819 0.008,-0.704594 0.39861,-1.075729 0.53776,-0.510367 0.6211,-0.950114 0.29542,-1.558663 -0.24013,-0.44869 -1.28428,-0.933184 -2.01113,-0.933184 -0.27476,0 -0.94863,-0.20399 -1.49747,-0.453311 -0.54885,-0.24932 -1.32915,-0.514243 -1.734,-0.588716 -0.88825,-0.163393 -1.61285,-0.779785 -2.77356,-2.359364 -1.27923,-1.740859 -2.14875,-1.799572 -2.96409,-0.200145 -0.22749,0.446255 -0.77812,1.132453 -1.22363,1.524884 -0.69796,0.614805 -0.82613,0.849566 -0.9265,1.696986 -0.12309,1.039321 -0.51919,1.810632 -1.71083,3.331427 -1.13288,1.445802 -0.96855,2.100245 0.57668,2.296643 1.04721,0.133099 1.38754,0.419255 1.38754,1.166681 0,0.449506 -0.21841,0.816947 -0.89219,1.501018 -1.10398,1.120838 -1.06211,1.619044 0.12272,1.460129 0.41961,-0.05628 1.13241,-0.276737 1.584,-0.489902 z m 16.33095,-2.206171 c 1.20583,-0.810671 0.86775,-1.869532 -0.59693,-1.869532 -0.38288,0 -0.86423,-0.127133 -1.06966,-0.282518 -0.55803,-0.422073 -1.18788,-0.35367 -1.92577,0.209144 -1.16907,0.891695 -0.70701,1.623905 1.2602,1.996978 0.56782,0.107684 1.07508,0.238473 1.12725,0.290643 0.19164,0.191647 0.5667,0.08435 1.20491,-0.344715 z M 61.766685,73.104169 c -1.24814,-0.44282 -2.75843,-1.797801 -2.59119,-2.324723 0.0589,-0.185532 0.007,-0.52404 -0.11499,-0.752241 -0.19359,-0.361717 -0.32447,-0.397569 -1.02089,-0.279647 -0.43936,0.07439 -1.10191,0.176378 -1.47233,0.226629 -0.6801,0.09226 -2.11296,0.757071 -2.33104,1.081539 -0.1878,0.279423 -2.30045,-0.05402 -2.42669,-0.38301 -0.0599,-0.156188 0.006,-0.355208 0.14714,-0.442268 0.21297,-0.131623 0.21219,-0.291421 -0.005,-0.948484 -0.19911,-0.603326 -0.20754,-0.843432 -0.0357,-1.015324 0.12383,-0.123822 0.22514,-0.731661 0.22514,-1.350753 0,-0.655121 0.13015,-1.383031 0.31139,-1.741447 0.36539,-0.722617 1.30557,-1.638381 2.14692,-2.09117 0.34425,-0.185263 0.76384,-0.667989 0.99314,-1.142587 0.65186,-1.349188 0.51636,-1.929623 -0.58114,-2.489529 -0.92579,-0.472302 -1.04427,-0.46995 -1.75312,0.0348 -0.5451,0.388147 -0.61362,0.394381 -1.20985,0.110062 -0.53267,-0.254013 -0.6698,-0.462361 -0.87238,-1.325469 -0.4448,-1.895039 -0.77361,-2.111669 -1.6274,-1.072188 -0.48561,0.59122 -0.77381,0.994097 -1.92117,2.685677 -0.56953,0.839678 -1.29077,1.308497 -1.41939,0.922638 -0.0453,-0.135997 -0.39583,-0.594536 -0.7789,-1.018976 -0.69324,-0.76813 -0.69634,-0.779384 -0.66784,-2.426171 0.0347,-2.003263 0.32573,-2.754477 1.47919,-3.817694 1.48499,-1.368821 2.28015,-1.68251 4.26493,-1.68251 1.85893,0 1.8052,-0.01902 4.36859,1.546473 0.60355,0.368595 1.51276,0.749064 2.02047,0.845486 1.13423,0.215411 1.86934,0.585721 2.57179,1.295538 0.2956,0.298702 0.85255,0.846164 1.23765,1.216582 0.68931,0.663022 0.9397,1.095774 1.17391,2.02895 0.15669,0.624331 -0.2364,0.622493 -1.41821,-0.0066 -1.11009,-0.590949 -1.49662,-0.374178 -1.29063,0.723816 0.16987,0.905524 0.73554,1.487217 1.44625,1.487217 0.50646,0 0.56978,0.065 0.56978,0.584941 0,0.321718 0.17277,0.923612 0.38394,1.337544 0.33053,0.647878 0.36789,0.988204 0.26853,2.445754 -0.0635,0.931233 -0.12802,2.013995 -0.14342,2.406138 -0.0182,0.462706 -0.16309,0.81622 -0.41284,1.00707 -0.38105,0.291174 -0.38047,0.295312 0.0582,0.418545 0.37377,0.104997 0.43397,0.233405 0.38485,0.820969 -0.0451,0.53987 -0.13396,0.68379 -0.39497,0.639963 -0.59006,-0.09907 -0.36628,0.223939 0.81852,1.181489 0.67959,0.549236 1.15383,1.083098 1.15383,1.298869 0,0.44674 -0.18755,0.442359 -1.53548,-0.03586 z M 112.46678,52.396278 c -0.52564,-0.124464 -2.59773,-2.180674 -2.59773,-2.577821 0,-0.398686 0.65041,-0.581239 1.55536,-0.436543 0.71351,0.114087 2.21898,-0.421536 2.91852,-1.038361 0.47313,-0.417191 0.42486,-1.135722 -0.0962,-1.432241 -1.65819,-0.943594 -3.17385,-1.153964 -5.43601,-0.754506 -0.635,0.112131 -1.6308,0.260014 -2.21289,0.328631 -0.58209,0.06862 -1.57007,0.374784 -2.19552,0.680371 -1.07608,0.525763 -2.61511,0.757681 -2.61511,0.394075 0,-0.365358 -1.08156,-0.608162 -2.709045,-0.608162 -1.39217,0 -1.75135,-0.05872 -1.84454,-0.301572 -0.19754,-0.514794 0.1976,-0.671167 1.97262,-0.780641 1.766755,-0.108963 3.994665,-0.814176 4.191335,-1.326708 0.11075,-0.288606 1.43988,-0.930251 2.52677,-1.219815 0.42334,-0.112783 1.47678,-0.236922 2.34099,-0.275864 0.98324,-0.04431 1.74044,-0.181642 2.02328,-0.366968 0.2486,-0.16289 0.71978,-0.354977 1.04706,-0.426859 0.32728,-0.07188 0.91492,-0.423689 1.30588,-0.781795 0.63366,-0.58041 0.68425,-0.69366 0.46599,-1.04315 -0.13466,-0.21563 -0.47131,-0.4418 -0.74811,-0.50259 -0.52337,-0.11495 -2.07216,0.3267 -2.78606,0.79446 -0.35517,0.23272 -0.59768,0.22774 -1.76677,-0.0363 -1.31065,-0.29598 -1.38083,-0.29288 -2.14017,0.0945 -0.4318,0.22029 -0.94008,0.40179 -1.1295,0.40333 -0.39558,0.003 -1.78427,0.465874 -2.70371,0.900777 -0.38151,0.180459 -0.67594,0.489965 -0.75115,0.7896 -0.21945,0.874377 -2.022925,2.19819 -2.434265,1.786844 -0.11484,-0.11484 -0.40796,-0.2088 -0.65138,-0.2088 -0.41292,0 -0.44258,-0.07781 -0.44258,-1.160948 0,-0.858556 0.12597,-1.409544 0.48364,-2.115363 0.26601,-0.52494 0.49286,-1.01996 0.50412,-1.10005 0.0835,-0.59379 0.51466,-1.11917 1.684615,-2.05266 0.74141,-0.59156 1.46415,-1.07556 1.60609,-1.07556 0.14194,0 0.55787,-0.25625 0.92429,-0.56945 0.36642,-0.3132 0.89267,-0.57298 1.16944,-0.57728 0.27677,-0.004 0.71534,-0.17468 0.97461,-0.37862 0.73065,-0.57473 2.77322,-1.1288 4.67977,-1.26944 0.9525,-0.0703 2.08793,-0.1928 2.52318,-0.27231 1.3704,-0.25033 4.27362,0.084 5.49288,0.63253 0.59881,0.2694 1.14512,0.58103 1.21401,0.6925 0.0689,0.11147 0.54602,0.20267 1.06029,0.20267 1.23402,0 1.45803,0.10445 1.9576,0.91278 0.48203,0.77994 0.59331,2.30745 0.2349,3.22436 -0.12411,0.3175 -0.28033,1.14012 -0.34716,1.82804 -0.10336,1.063963 -0.0657,1.321407 0.25247,1.723781 0.37243,0.471049 0.37204,0.476846 -0.0917,1.392038 -0.32989,0.650999 -0.68886,1.032865 -1.23089,1.309388 -0.84063,0.428854 -1.18559,0.874394 -1.53877,1.987399 -0.16657,0.524918 -0.50392,0.93029 -1.176,1.413132 -0.86464,0.621187 -1.03438,0.846143 -0.96223,1.275281 0.0541,0.321611 -0.98959,1.46094 -1.60637,1.75362 -0.60773,0.288388 -2.04101,0.372651 -2.89581,0.170245 z m 17.54276,-6.727391 c -0.0706,-0.07056 -0.12829,-0.300509 -0.12829,-0.511006 0,-0.210497 -0.22174,-0.673435 -0.49275,-1.028751 -0.27101,-0.355316 -0.69935,-1.113202 -0.95187,-1.684191 -0.25252,-0.57099 -0.55033,-1.09453 -0.6618,-1.16342 -0.52369,-0.32366 0.26288,-2.0921 1.37905,-3.10049 0.61657,-0.55704 0.88358,-0.66328 1.73816,-0.69163 0.55532,-0.0184 1.28717,-0.0429 1.62634,-0.0545 0.3592,-0.0122 0.81705,-0.20925 1.09665,-0.47191 0.62514,-0.58729 0.94189,-0.44033 1.26639,0.58754 0.14555,0.46104 0.34868,0.94944 0.4514,1.08534 0.12215,0.1616 0.11388,0.39463 -0.0239,0.67349 -0.11587,0.23452 -0.25606,1.03254 -0.31154,1.77337 -0.1444,1.928276 -0.39557,3.382603 -0.68959,3.992824 -0.3572,0.741373 -1.13472,0.719399 -1.70216,-0.04811 -0.51317,-0.6941 -0.72133,-0.724984 -0.87087,-0.129202 -0.15309,0.609967 -1.35086,1.144983 -1.72522,0.770619 z"
     id="path2"
     sodipodi:nodetypes="ccsssssssssssssscssssssssssscssssscscccssscsscscssccscscccssscssssssscscsssssssssssssssssccsssscssssssscsssssssssssssssssssssssssssssssssssssssssssssscssssssssssssssssssscssssssscssscsssssssssccssssscsssscssssssssssssscsssssssssssssssssssssscsssssscssssssssssscsssssssssssssssssssssssscccccsscsscsscssssssssssssssssssssssssssssssssssscssssssssccsssssssssccsssssssscssssssssssssssssssssscscssssccssssssssssssssssssssscsssssssssssscccsssssssssssssssssssscscsssssssssscscssssssscsssssscccsssssccsssssssscc" /></svg>
