<?xml version="1.0" encoding="UTF-8" standalone="no"?>
<svg
   id="Layer_1"
   viewBox="0 0 156.63401 156.63405"
   enable-background="new 0 0 542 157"
   version="1.1"
   sodipodi:docname="peronbw.svg"
   xml:space="preserve"
   inkscape:export-filename="overleafkike.svg"
   inkscape:export-xdpi="96"
   inkscape:export-ydpi="96"
   width="156.634"
   height="156.63405"
   inkscape:version="1.3.2 (091e20e, 2023-11-25, custom)"
   xmlns:inkscape="http://www.inkscape.org/namespaces/inkscape"
   xmlns:sodipodi="http://sodipodi.sourceforge.net/DTD/sodipodi-0.dtd"
   xmlns="http://www.w3.org/2000/svg"
   xmlns:svg="http://www.w3.org/2000/svg"><defs
     id="defs2"><inkscape:path-effect
       effect="fillet_chamfer"
       id="path-effect2"
       is_visible="true"
       lpeversion="1"
       nodesatellites_param="F,0,1,1,0,37.929025,0,1 @ F,0,0,1,0,37.929025,0,1 @ F,0,1,1,0,37.929025,0,1 @ F,0,1,1,0,37.929025,0,1"
       radius="0"
       unit="px"
       method="auto"
       mode="F"
       chamfer_steps="1"
       flexible="false"
       use_knot_distance="true"
       apply_no_radius="true"
       apply_with_radius="true"
       only_selected="false"
       hide_knots="false" /><inkscape:path-effect
       effect="fillet_chamfer"
       id="path-effect1"
       is_visible="true"
       lpeversion="1"
       nodesatellites_param="F,0,0,1,0,0,0,1 @ F,0,0,1,0,0,0,1 @ F,0,0,1,0,0,0,1 @ F,0,0,1,0,0,0,1"
       radius="0"
       unit="px"
       method="auto"
       mode="F"
       chamfer_steps="1"
       flexible="false"
       use_knot_distance="true"
       apply_no_radius="true"
       apply_with_radius="true"
       only_selected="false"
       hide_knots="false" /><defs
       id="defs1"><filter
         id="Adobe_OpacityMaskFilter"
         filterUnits="userSpaceOnUse"
         x="0"
         y="0.30000001"
         width="299.20001"
         height="156.7"><feColorMatrix
           values="1 0 0 0 0 0 1 0 0 0 0 0 1 0 0 0 0 0 1 0"
           id="feColorMatrix1" /></filter></defs><mask
       maskUnits="userSpaceOnUse"
       x="0"
       y=".3"
       width="299.2"
       height="156.7"
       id="mask-2"><g
         class="st0"
         id="g1"><path
           id="path-1"
           class="st1"
           d="M 299.2,156.9 H 0.1 V 0.3 h 299.1 z" /></g></mask></defs><sodipodi:namedview
     id="namedview1"
     pagecolor="#000000"
     bordercolor="#000000"
     borderopacity="0.25"
     inkscape:showpageshadow="2"
     inkscape:pageopacity="0.0"
     inkscape:pagecheckerboard="0"
     inkscape:deskcolor="#d1d1d1"
     inkscape:zoom="2.56"
     inkscape:cx="125.19531"
     inkscape:cy="57.226563"
     inkscape:window-width="1920"
     inkscape:window-height="1009"
     inkscape:window-x="1912"
     inkscape:window-y="-8"
     inkscape:window-maximized="1"
     inkscape:current-layer="Layer_1" /><style
     id="style1">.st0{filter:url(#Adobe_OpacityMaskFilter);} .st1{fill:#FFFFFF;} .st2{mask:url(#mask-2);fill:#FFFFFF;}</style><path
     id="path2"
     style="fill:#ffffff;fill-opacity:1"
     d="M 37.929688,0 C 16.981548,-3.6617704e-4 -3.6617704e-4,16.981548 0,37.929688 v 80.775392 c 0.00353126,12.69577 6.3587969,24.54783 16.931641,31.57617 l 0.002,-7.78906 0.0059,-14.14063 1.003906,-0.73828 c 1.292782,-0.95082 3.248898,-2.21247 5.429688,-3.5 2.271302,-1.34097 2.822856,-1.71408 3.697265,-2.50976 0.40123,-0.36511 1.328738,-1.18348 2.060547,-1.81836 1.950148,-1.69185 4.359847,-4.47965 5.003907,-5.78711 0.309209,-0.62769 0.7306,-1.33172 0.9375,-1.56446 0.219199,-0.24658 0.326369,-0.55453 0.255859,-0.73828 -0.08,-0.20844 0.173414,-0.65779 0.746094,-1.32812 0.476499,-0.55775 0.865234,-1.18067 0.865234,-1.38281 0,-1.05255 2.785345,-4.00972 5.507813,-5.84961 1.251168,-0.84557 1.987683,-1.47504 2.064453,-1.76172 0.17132,-0.63972 0.152638,-1.26508 -0.05078,-1.650394 -0.097,-0.18378 -0.285799,-0.625239 -0.417969,-0.980468 -0.24646,-0.66239 -2.379236,-2.982925 -3.271485,-3.558594 l -0.5,-0.322266 -0.148437,-4.08789 c -0.0819,-2.247798 -0.131145,-5.960916 -0.109375,-8.251954 0.0426,-4.48173 -0.123167,-5.802999 -1.072266,-8.498046 -0.253799,-0.720686 -0.46289,-1.559205 -0.46289,-1.865235 0,-0.991645 -0.426247,-2.385506 -1.828125,-5.964844 -0.6998,-1.786756 -1.401773,-4.394328 -1.726563,-6.417968 -0.0485,-0.302318 -0.170807,-0.649776 -0.273437,-0.773438 -0.10263,-0.123663 -0.241181,-0.699856 -0.306641,-1.279297 -0.12887,-1.140713 -0.2062,-1.514 -0.980469,-4.708984 -0.506969,-2.091993 -0.512853,-2.195219 -0.501953,-8.851563 0.009,-5.491412 0.06617,-6.930029 0.310547,-7.792968 0.16486,-0.58208 0.306883,-1.535108 0.314453,-2.117188 0.008,-0.582089 0.09432,-1.492315 0.19336,-2.021484 0.0991,-0.52916 0.259188,-1.437442 0.355468,-2.019531 0.0963,-0.58208 0.399209,-1.722748 0.673828,-2.535157 0.274623,-0.812419 0.5,-1.643726 0.5,-1.847656 0,-0.772409 0.936192,-2.900422 2.0625,-4.6875 0.64299,-1.020219 1.219594,-2.020283 1.283204,-2.220703 0.0636,-0.20043 0.379622,-0.519045 0.701171,-0.708984 0.32154,-0.18994 0.811391,-0.706938 1.087891,-1.148438 0.2765,-0.44151 0.560319,-0.845518 0.630859,-0.898438 0.0705,-0.0529 0.394294,-0.486641 0.720703,-0.96289 0.3264,-0.47626 0.872591,-1.12586 1.212891,-1.44336 0.34031,-0.317499 1.24597,-1.359737 2.011719,-2.316406 1.446758,-1.8074777 1.820259,-2.0676573 4.816406,-3.347656 0.52917,-0.2260698 1.466272,-0.6667691 2.082031,-0.9804688 0.61577,-0.3137096 1.290301,-0.5703124 1.5,-0.5703124 0.20971,0 0.633277,-0.1316758 0.941407,-0.2910157 0.695719,-0.3597696 3.048549,-0.8648925 4.111328,-0.8828125 1.032739,-0.0174 3.827531,-0.4982297 4.93164,-0.8496094 0.47625,-0.1515698 1.472052,-0.3581213 2.212891,-0.4570312 0.740839,-0.0989 2.168409,-0.3678465 3.173828,-0.5976562 1.005419,-0.2298098 2.304519,-0.4779345 2.886719,-0.5527344 0.582189,-0.0748 1.159983,-0.1992307 1.283203,-0.2753906 0.12449,-0.0769 0.494412,0.088927 0.832031,0.3730468 0.59416,0.4999595 0.620981,0.5042728 1.21875,0.1894532 0.33623,-0.1770699 0.896311,-0.5289634 1.244141,-0.7832032 0.638829,-0.4669295 2.093978,-0.8769531 3.117187,-0.8769531 0.30605,0 0.606969,-0.080928 0.667969,-0.1796875 0.061,-0.0987 0.347509,-0.1773112 0.636719,-0.1757812 0.2892,0.002 0.914365,-0.084323 1.390625,-0.18945318 C 82.443135,0.88896073 83.353371,0.70372113 83.98837,0.58203125 84.62337,0.46033137 85.51167,0.2789874 85.96298,0.1796875 86.4142,0.0803876 87.349816,0 88.041016,0 Z M 89.296875,0 89.177734,0.63867188 C 89.098434,1.0612914 89.1434,1.345132 89.3125,1.4824219 c 0.25579,0.2076198 3.085051,1.6566212 4.443359,2.2753906 0.65013,0.2961497 1.147738,1.0729659 0.867188,1.3535156 -0.21112,0.2111198 -6.027569,-0.5592871 -6.355469,-0.8417969 -0.306,-0.2636397 -0.382733,-0.2512196 -0.783203,0.125 -0.38969,0.3660997 -0.661904,0.4169888 -2.257813,0.4179688 -0.998599,6.1e-4 -2.319437,0.082724 -2.935546,0.1835938 -1.490839,0.2441597 -4.724003,1.4639861 -5.326172,2.0097656 -0.26458,0.2398097 -0.9455,0.7145678 -1.511719,1.0546875 -2.069028,1.2428087 -2.958489,2.5551391 -3.136719,4.6230471 -0.0692,0.803209 -0.187399,1.693156 -0.261718,1.978515 -0.0987,0.37905 -0.02183,0.675983 0.28125,1.101563 0.452449,0.635409 0.378447,0.968826 -0.357422,1.634766 -0.30253,0.273789 -0.402344,0.594056 -0.402344,1.291015 0,0.58838 -0.141126,1.158984 -0.384766,1.558594 -0.492709,0.808119 -0.486678,0.849251 0.144532,1.150391 0.602779,0.287569 0.785791,1.03512 0.419921,1.71875 -0.197979,0.369939 -0.169538,0.478273 0.207032,0.783203 0.240509,0.194749 0.585158,0.305946 0.767578,0.248047 0.357909,-0.11359 2.501953,1.54685 2.501953,1.9375 0,0.119539 -0.173106,0.372893 -0.384766,0.564453 -0.591269,0.535089 -0.486006,1.32959 0.289063,2.1875 0.370419,0.410009 0.673828,0.842387 0.673828,0.960937 0,0.11855 -0.287029,0.590719 -0.636719,1.048828 -0.34969,0.45811 -0.751841,1.114495 -0.894531,1.458985 -0.24133,0.582619 -0.226885,0.658183 0.203125,1.064453 0.553859,0.523289 2.118092,1.126696 2.519531,0.972656 0.15757,-0.0605 0.399723,0.02737 0.539063,0.195312 0.216119,0.2604 0.166368,0.397109 -0.332032,0.923829 -0.793779,0.838899 -1.013672,1.321927 -1.013672,2.216797 0,0.593759 0.128835,0.885217 0.589844,1.335937 0.57345,0.560659 0.580647,0.595748 0.310547,1.242187 -0.15276,0.3656 -0.526218,0.851799 -0.830078,1.080079 -1.059729,0.796133 -1.079191,0.825431 -0.962891,1.552734 0.0824,0.515046 -0.01023,0.949294 -0.357422,1.658203 -0.478519,0.977196 -0.666803,2.843066 -0.308593,3.064453 0.0959,0.05927 0.130008,0.282669 0.07422,0.496094 -0.0613,0.234262 0.09783,0.690262 0.402343,1.150391 0.27742,0.419201 0.503907,0.863891 0.503907,0.988281 0,0.124391 -0.31172,0.784372 -0.69336,1.466797 l -0.693359,1.242187 -1.00586,-0.126953 c -1.335288,-0.166833 -1.837772,0.212756 -1.982421,1.496094 -0.19815,1.757914 -1.282858,2.026175 -3.578126,0.882812 -0.617669,-0.307685 -1.40308,-0.560546 -1.74414,-0.560546 -0.36491,0 -1.070175,-0.271956 -1.714844,-0.660157 -2.252008,-1.356089 -5.149373,-2.583558 -6.482422,-2.748047 -0.370419,-0.04571 -1.02002,-0.244139 -1.443359,-0.439453 -1.051659,-0.485204 -3.422125,-1.347656 -3.703125,-1.347656 -0.12608,0 -0.513779,0.120422 -0.861328,0.267578 -0.34755,0.147156 -1.122204,0.357062 -1.720703,0.466797 -1.816349,0.333024 -3.101307,1.038937 -4.041016,2.216797 -0.45959,0.576066 -1.071788,1.18945 -1.361328,1.365234 -0.39675,0.240865 -0.620764,0.637499 -0.908203,1.609375 -0.33363,1.128045 -0.724827,3.612338 -0.748047,4.753906 -0.004,0.211668 -0.06676,0.801478 -0.140625,1.310547 -0.0804,0.554377 -0.05153,1.095262 0.07227,1.347657 0.113729,0.231766 0.238673,0.939216 0.277343,1.574218 0.0735,1.206772 0.507142,2.285377 1.78125,4.425782 0.378,0.635002 0.823605,1.457707 0.990235,1.828125 0.752209,1.672165 0.960858,1.98503 1.992187,2.96875 0.60253,0.574715 1.385705,1.504924 1.740235,2.068359 1.333878,2.119856 2.800959,3.948757 4.042968,5.037109 1.545219,1.354052 3.46154,2.597358 4.511719,2.929688 0.940349,0.29757 3.148319,1.175894 3.605469,1.433594 1.037929,0.585089 3.202042,-0.18078 3.832031,-1.355469 0.728309,-1.358009 2.014377,-2.304688 3.128906,-2.304688 0.40544,0 0.500409,0.119707 0.642578,0.816407 0.14591,0.714999 0.22596,0.813121 0.636719,0.769531 0.26279,-0.0279 0.711199,-0.346997 1.017578,-0.722656 0.30125,-0.36939 0.615589,-0.629805 0.699219,-0.578125 0.0836,0.0517 0.25204,-0.02562 0.375,-0.173829 0.1372,-0.165309 0.152462,-0.314705 0.03906,-0.384765 -0.11652,-0.072 -0.108076,-0.314846 0.02148,-0.658203 0.18275,-0.484149 0.298305,-0.544922 1.052734,-0.544922 0.779479,0 0.877842,0.05586 1.201172,0.689453 0.19353,0.379239 0.728364,1.041114 1.189453,1.470703 0.46108,0.4296 0.930069,0.944248 1.042969,1.142578 0.19803,0.34786 0.220064,0.346322 0.621094,-0.05469 0.22865,-0.22865 0.368527,-0.540307 0.310547,-0.691407 -0.2229,-0.580849 2.413607,-0.70848 5.021484,-0.24414 1.125309,0.20037 1.338049,0.295658 1.287109,0.585937 -0.0384,0.21872 0.0194,0.297481 0.15625,0.212891 0.11958,-0.0739 0.386694,0.0218 0.595704,0.210938 0.279989,0.253379 0.349268,0.486156 0.261718,0.884765 -0.0915,0.41658 -0.03666,0.569822 0.234375,0.669922 0.19364,0.0715 0.643071,0.350771 1,0.619141 0.50365,0.378689 0.847993,0.479621 1.539063,0.451172 1.011489,-0.0417 1.311016,0.09425 1.634765,0.746093 0.12537,0.25242 0.420771,0.487665 0.65625,0.521485 0.29325,0.0421 0.427735,0.192349 0.427735,0.480468 0,0.2455 0.280768,0.654693 0.673828,0.982422 0.37041,0.30885 0.673828,0.7167 0.673828,0.90625 0,0.38101 0.670287,0.827781 0.966797,0.644532 0.31223,-0.19297 0.211984,-0.652624 -0.197266,-0.908204 -0.479679,-0.299569 -0.492892,-0.759821 -0.0332,-1.175781 0.743239,-0.672629 1.644783,-0.197991 1.882813,0.992188 0.0838,0.418779 0.233826,0.613281 0.472656,0.613281 0.19219,0 0.40235,0.08787 0.46875,0.195312 0.24054,0.38919 1.513665,0.767579 2.583984,0.767578 0.64297,0 1.247327,0.112578 1.466797,0.273438 0.21931,0.16075 0.591919,0.229799 0.902341,0.167969 0.29267,-0.0583 0.65775,0.0011 0.81641,0.132812 0.40707,0.33784 1.04445,0.122077 1.96289,-0.664062 1.14403,-0.979249 2.37825,-0.901887 2.20703,0.138672 -0.0307,0.186289 0.12534,0.569469 0.3457,0.849609 0.22603,0.28734 0.35356,0.656726 0.29297,0.847656 -0.0591,0.18613 -0.0183,0.392868 0.0918,0.460938 0.11014,0.0681 0.20117,0.33541 0.20117,0.59375 0,0.273199 0.11167,0.470703 0.26758,0.470703 0.34438,0 0.57191,0.582398 0.32422,0.830078 -0.12469,0.12469 -0.12225,0.314105 0.006,0.552734 0.14718,0.27501 0.0984,0.520033 -0.20313,1.007813 -0.21892,0.35423 -0.3485,0.775567 -0.28711,0.935547 0.0614,0.15998 0.0192,0.348099 -0.0937,0.417969 -0.31985,0.197679 -0.24232,0.67946 0.13086,0.8125 0.18521,0.066 0.45604,0.212831 0.60156,0.326171 0.14553,0.11335 0.50709,0.181401 0.80274,0.150391 0.43678,-0.0458 0.62957,0.0798 1.0332,0.673828 0.2732,0.402065 0.4997,0.905585 0.50196,1.119145 0.005,0.46904 1.42306,1.53074 1.83398,1.37305 0.1563,-0.06 0.36712,-0.32645 0.46875,-0.59375 0.24032,-0.63209 0.77148,-0.64458 0.77148,-0.0176 0,0.25834 -0.078,0.51885 -0.17382,0.57812 -0.0959,0.0593 -0.12952,0.28063 -0.0742,0.49219 0.11306,0.43237 0.57289,0.49232 1.28906,0.16602 0.71316,-0.32494 1.35019,0.17134 1.74609,1.36328 0.39042,1.17544 1.04828,1.74218 2.02539,1.74218 0.85771,0 2.08827,0.47623 2.23829,0.86719 0.13859,0.36117 1.3107,0.68318 1.99218,0.54688 0.29471,-0.0589 0.58952,-0.012 0.66211,0.10547 0.19133,0.30956 0.81852,0.25931 0.94727,-0.0762 0.0609,-0.15875 0.28697,-0.28906 0.50195,-0.28906 0.25865,0 0.39063,-0.12592 0.39063,-0.37305 0,-0.45339 0.2455,-0.63027 0.65625,-0.47265 0.18431,0.0707 0.30664,0.34457 0.30664,0.6875 0,0.31313 0.0975,0.74986 0.21679,0.97265 0.17714,0.33098 0.15185,0.45254 -0.13476,0.66211 -0.28005,0.20478 -0.3028,0.30464 -0.11133,0.4961 0.13189,0.1319 0.30092,0.24691 0.375,0.2539 0.0741,0.007 0.43817,0.14615 0.80859,0.31055 1.55108,0.68842 2.1363,0.81085 4.42578,0.92188 1.32292,0.0642 2.55698,0.18693 2.74219,0.27343 0.34396,0.16065 0.45106,0.70517 0.19141,0.96875 -0.0794,0.0806 -0.14453,0.45966 -0.14453,0.84375 0,0.58579 -0.0919,0.74304 -0.57617,0.97657 -1.56907,0.75667 -6.26728,4.43518 -9.21485,7.21484 -0.5174,0.48793 -1.04271,0.88867 -1.16601,0.88867 -0.12329,0 -0.522,0.31039 -0.88672,0.69141 -0.36472,0.38102 -1.44203,1.34969 -2.39453,2.15234 -0.9525,0.80265 -1.79557,1.56299 -1.87305,1.68945 -0.0775,0.12645 -0.98575,0.87937 -2.01953,1.67188 -1.03378,0.79251 -3.00698,2.56634 -4.38281,3.94336 -1.37584,1.37703 -2.76038,2.6361 -3.07813,2.79687 -0.31775,0.16077 -0.74618,0.47662 -0.95117,0.70313 -0.28064,0.3101 -0.50559,0.38421 -0.91211,0.29492 -0.44769,-0.0983 -0.57023,-0.0406 -0.71485,0.33984 -0.0979,0.25745 -0.10576,0.83249 -0.0176,1.3125 0.12002,0.65352 0.096,0.89089 -0.10743,1.00586 -0.2977,0.1683 -0.70683,1.00401 -1.05664,2.16016 -0.34871,1.15255 -1.39075,2.76945 -2.45507,3.8125 -0.86062,0.84343 -1.00623,0.91796 -1.599612,0.80273 -0.50152,-0.0974 -0.784197,-0.33393 -1.222656,-1.01757 -0.31389,-0.48942 -0.812773,-1.16441 -1.107422,-1.5 -0.29465,-0.33559 -0.535157,-0.74806 -0.535157,-0.91797 0,-0.16991 -0.332111,-0.51898 -0.738281,-0.77539 -0.406169,-0.2564 -1.120931,-0.91577 -1.58789,-1.46485 -1.603239,-1.8852 -5.660347,-5.91942 -6.253907,-6.21875 -0.326639,-0.16473 -0.827944,-0.60772 -1.115234,-0.98437 -0.28845,-0.37817 -0.692054,-0.68555 -0.902344,-0.68555 -0.21654,0 -1.29792,-0.85118 -2.505859,-1.97266 -1.168419,-1.08479 -2.703197,-2.3874 -3.410156,-2.89648 -1.699829,-1.22404 -1.694808,-1.2182 -1.335938,-1.61914 0.16801,-0.18771 0.363727,-0.74063 0.435547,-1.22656 0.12663,-0.8567 0.11227,-0.88972 -0.474609,-1.13282 -0.4544,-0.18821 -0.660842,-0.19656 -0.826172,-0.0312 -0.12111,0.12111 -0.592096,0.2207 -1.046875,0.2207 -0.68501,0 -0.962348,-0.12382 -1.623047,-0.7207 -1.429669,-1.29162 -1.687154,-1.88624 -1.677735,-3.86915 0.005,-0.95717 -0.04762,-1.83009 -0.115234,-1.93945 -0.0676,-0.10935 -0.19379,-0.83537 -0.28125,-1.61523 -0.19639,-1.75119 -0.536077,-2.51313 -1.160156,-2.60157 -0.25702,-0.0364 -0.988841,-0.40499 -1.625,-0.81836 -0.636159,-0.41336 -1.351664,-0.75195 -1.589844,-0.75195 -0.23982,0 -0.694321,-0.27865 -1.019531,-0.625 l -0.587891,-0.625 -0.589844,0.33594 c -0.579149,0.32905 -0.603913,0.32592 -1.220703,-0.14453 -0.354219,-0.27018 -0.88741,-0.48047 -1.21875,-0.48047 -0.512819,0 -0.665294,-0.13631 -1.183593,-1.05469 -0.38888,-0.68905 -0.756618,-1.09363 -1.060547,-1.16992 -0.27327,-0.0686 -0.564729,-0.35454 -0.705078,-0.69336 -0.36225,-0.87455 -1.954032,-1.28435 -2.488282,-0.64062 -0.458289,0.55221 -1.093448,0.33349 -1.960937,-0.67383 -0.45566,-0.52912 -0.931481,-0.96284 -1.056641,-0.96289 -0.12516,-5e-5 -0.27669,-0.15678 -0.33789,-0.34961 -0.0612,-0.19282 -0.479095,-0.55562 -0.927735,-0.80469 -0.448639,-0.24908 -0.859199,-0.50482 -0.912109,-0.56836 -0.0529,-0.0635 -0.458131,-0.39607 -0.900391,-0.74023 -1.041659,-0.81058 -1.548909,-2.170044 -1.25,-3.347663 0.21487,-0.846519 0.08769,-1.384996 -0.535156,-2.259766 -0.4496,-0.631399 -2.209745,-1.283753 -2.958984,-1.095703 -0.43938,0.11027 -0.511719,0.231188 -0.511719,0.835938 0,0.812959 0.357743,2.900355 0.570312,3.328125 0.0792,0.15931 0.07765,0.419935 -0.002,0.578125 -0.0799,0.15819 -0.383178,0.928264 -0.673828,1.710944 -0.29065,0.78269 -0.710864,1.60335 -0.933594,1.82421 -0.415339,0.41187 -1.46289,2.32973 -1.46289,2.67774 0,0.10677 0.93065,1.12951 2.068359,2.27344 1.137719,1.14394 2.328985,2.34355 2.646485,2.66601 0.317499,0.32245 1.735472,1.69026 3.15039,3.03907 1.414909,1.3488 3.449306,3.47246 4.521484,4.7207 1.072179,1.24824 2.729142,3.1707 3.681641,4.27148 0.952509,1.10077 2.944113,3.08143 4.425781,4.40039 1.481669,1.31896 3.385753,3.07792 4.232422,3.91016 2.281648,2.24276 7.56029,7.78246 7.94336,8.33594 0.183119,0.26458 0.658518,0.82267 1.054687,1.24023 0.39617,0.41756 0.71875,0.8175 0.71875,0.88867 0,0.1044 1.772093,2.51675 2.476563,3.3711 0.426569,0.51733 2.647531,3.96363 3.33789,5.17968 0.58122,1.02382 0.876033,1.87855 1.226563,3.56055 0.253639,1.21708 0.46205,2.45115 0.46289,2.74219 v 0.5293 h 31.542967 c 20.94814,3.7e-4 37.93006,-16.98155 37.92969,-37.92969 V 37.929688 C 156.63514,16.981547 139.65322,-3.6728165e-4 118.70508,0 Z m 24.072265,33.794922 c 1.45182,0.01414 3.31212,0.3054 4.22656,0.716797 0.59881,0.269399 1.14596,0.579936 1.21485,0.691406 0.0689,0.11147 0.54627,0.203125 1.06054,0.203125 1.23402,0 1.45747,0.10378 1.95703,0.912109 0.48203,0.77994 0.59279,2.307701 0.23438,3.22461 -0.12411,0.317499 -0.27887,1.140205 -0.3457,1.828125 -0.10336,1.063962 -0.0662,1.322236 0.25195,1.724609 0.37243,0.471049 0.37194,0.475434 -0.0918,1.390625 -0.32989,0.650998 -0.68844,1.034024 -1.23047,1.310547 -0.84062,0.428854 -1.18588,0.873324 -1.53906,1.986328 -0.16657,0.524918 -0.5037,0.931221 -1.17578,1.414063 -0.86464,0.621186 -1.03504,0.846253 -0.96289,1.27539 0.0541,0.321611 -0.98869,1.461227 -1.60547,1.753906 -0.60773,0.288388 -2.04168,0.372328 -2.89648,0.169922 -0.52564,-0.124464 -2.59766,-2.180978 -2.59766,-2.578125 0,-0.398685 0.64974,-0.580242 1.55469,-0.435547 0.71351,0.114087 2.22038,-0.422238 2.91992,-1.039062 0.47313,-0.417191 0.4234,-1.135122 -0.0977,-1.431641 -1.65818,-0.943593 -3.17339,-1.155317 -5.43554,-0.755859 -0.635,0.112131 -1.6308,0.261461 -2.21289,0.330078 -0.58209,0.06862 -1.56987,0.374101 -2.19532,0.679688 -1.07608,0.525762 -2.61523,0.758137 -2.61523,0.394531 0,-0.365358 -1.0815,-0.609375 -2.708985,-0.609375 -1.392169,0 -1.75056,-0.05793 -1.84375,-0.300781 -0.19754,-0.514794 0.197638,-0.671776 1.972656,-0.78125 1.766749,-0.108963 3.994739,-0.813641 4.191409,-1.326172 0.11075,-0.288606 1.4385,-0.93114 2.52539,-1.220703 0.42334,-0.112783 1.47759,-0.236449 2.34179,-0.275391 0.98324,-0.04431 1.7406,-0.181862 2.02344,-0.367187 0.2486,-0.16289 0.7196,-0.3539 1.04688,-0.425782 0.32728,-0.07188 0.91373,-0.425097 1.30468,-0.783203 0.63366,-0.580409 0.68506,-0.693479 0.4668,-1.042969 -0.13466,-0.215629 -0.47125,-0.441163 -0.74804,-0.501953 -0.52337,-0.11495 -2.07126,0.327163 -2.78516,0.794922 -0.35517,0.23272 -0.59849,0.22693 -1.76758,-0.03711 -1.31065,-0.29598 -1.38129,-0.291677 -2.14062,0.0957 -0.4318,0.22029 -0.93949,0.400804 -1.12891,0.402344 -0.39558,0.003 -1.78369,0.465488 -2.70313,0.90039 -0.38151,0.180459 -0.67674,0.491381 -0.75195,0.791016 -0.21945,0.874376 -2.022253,2.196502 -2.433592,1.785156 -0.11484,-0.11484 -0.408924,-0.208984 -0.652344,-0.208984 -0.41292,0 -0.441407,-0.07702 -0.441406,-1.160157 0,-0.858555 0.124752,-1.409416 0.482421,-2.115234 0.26601,-0.524939 0.492647,-1.019519 0.503907,-1.099609 0.0835,-0.59379 0.515593,-1.119246 1.685544,-2.052735 0.74141,-0.591559 1.46353,-1.076172 1.60547,-1.076172 0.14194,0 0.55741,-0.255159 0.92383,-0.568359 0.36642,-0.3132 0.89315,-0.573825 1.16992,-0.578125 0.27677,-0.004 0.71534,-0.174966 0.97461,-0.378906 0.73065,-0.57473 2.77314,-1.128892 4.67969,-1.269531 0.9525,-0.0703 2.08819,-0.191975 2.52344,-0.271485 0.3426,-0.06258 0.78168,-0.0887 1.26562,-0.08398 z m 20.99219,2.855469 c 0.19789,0.09181 0.35728,0.386456 0.51953,0.90039 0.14555,0.46104 0.34845,0.950038 0.45117,1.085938 0.12215,0.1616 0.11434,0.393015 -0.0234,0.671875 -0.11587,0.23452 -0.25506,1.032608 -0.31054,1.773437 -0.1444,1.928274 -0.39544,3.38392 -0.68946,3.994141 -0.3572,0.741372 -1.13568,0.71868 -1.70312,-0.04883 -0.51317,-0.6941 -0.72156,-0.724688 -0.87109,-0.128906 -0.15309,0.609966 -1.35025,1.143894 -1.72461,0.769531 -0.0706,-0.07056 -0.12891,-0.299269 -0.12891,-0.509766 0,-0.210497 -0.22118,-0.673981 -0.49219,-1.029297 -0.27101,-0.355315 -0.69865,-1.112605 -0.95117,-1.683594 -0.25252,-0.570989 -0.55064,-1.095172 -0.66211,-1.164062 -0.52369,-0.32366 0.26274,-2.09122 1.37891,-3.099609 0.61657,-0.55704 0.8837,-0.663057 1.73828,-0.691407 0.55532,-0.0184 1.28583,-0.04309 1.625,-0.05469 0.3592,-0.0122 0.81805,-0.209997 1.09765,-0.472656 0.31257,-0.293645 0.54821,-0.404313 0.7461,-0.3125 z M 50.505859,51.861328 c 1.858929,0 1.805754,-0.01862 4.369141,1.546875 0.603549,0.368595 1.511822,0.749281 2.019531,0.845703 1.134229,0.215411 1.869817,0.585106 2.572266,1.294922 0.2956,0.298702 0.851228,0.846379 1.236328,1.216797 0.689309,0.663021 0.939618,1.096122 1.173828,2.029297 0.15669,0.62433 -0.23616,0.62128 -1.417969,-0.0078 -1.110089,-0.590948 -1.495052,-0.373383 -1.289062,0.72461 0.16987,0.905523 0.734603,1.486328 1.445312,1.486328 0.50646,0 0.570313,0.066 0.570313,0.585937 0,0.321718 0.171643,0.923959 0.382812,1.337891 0.33053,0.647877 0.368892,0.987764 0.269532,2.445313 -0.0635,0.931232 -0.129132,2.014107 -0.144532,2.40625 -0.0182,0.462705 -0.162359,0.815009 -0.412109,1.005859 -0.38105,0.291174 -0.380076,0.296689 0.05859,0.419922 0.373769,0.104997 0.433885,0.232749 0.384765,0.820312 -0.0451,0.53987 -0.133521,0.684452 -0.394531,0.640625 -0.590059,-0.09907 -0.366439,0.224092 0.81836,1.181641 0.679589,0.549235 1.152343,1.083057 1.152343,1.298828 0,0.446423 -0.187872,0.440099 -1.533203,-0.03711 h -0.002 c -1.247842,-0.443386 -2.757015,-1.797514 -2.589844,-2.324219 0.0589,-0.185532 0.0068,-0.523752 -0.115234,-0.751953 -0.19359,-0.361717 -0.325065,-0.397219 -1.021485,-0.279297 -0.439359,0.07439 -1.102236,0.176311 -1.472656,0.226562 -0.680099,0.09226 -2.111998,0.757564 -2.330078,1.082032 -0.1878,0.279422 -2.301494,-0.05578 -2.427734,-0.384766 -0.0599,-0.156188 0.0073,-0.354346 0.148437,-0.441406 0.21297,-0.131623 0.211331,-0.292157 -0.0059,-0.949219 -0.19911,-0.603325 -0.206996,-0.84178 -0.03516,-1.013672 0.12383,-0.123822 0.224609,-0.732471 0.224609,-1.351562 0,-0.655121 0.13126,-1.383772 0.3125,-1.742188 0.36539,-0.722616 1.305135,-1.637055 2.146484,-2.089844 0.34425,-0.185262 0.762888,-0.66798 0.992188,-1.142578 0.651859,-1.349186 0.517421,-1.930329 -0.580078,-2.490234 -0.925789,-0.472302 -1.045057,-0.469593 -1.753907,0.03516 -0.545099,0.388147 -0.612754,0.393694 -1.208984,0.109375 -0.532669,-0.254013 -0.670467,-0.461111 -0.873047,-1.324219 -0.444799,-1.895037 -0.773164,-2.111745 -1.626953,-1.072265 -0.485609,0.591219 -0.774516,0.993968 -1.921875,2.685547 -0.569529,0.839677 -1.289349,1.307733 -1.417969,0.921875 -0.0453,-0.135997 -0.396227,-0.595092 -0.779296,-1.019532 -0.69324,-0.768129 -0.696469,-0.778996 -0.667969,-2.425781 0.0347,-2.003261 0.325057,-2.755143 1.478515,-3.818359 1.484989,-1.36882 2.280847,-1.681641 4.265625,-1.681641 z m 70.757811,5.822266 c 0.64348,-0.09239 0.76174,0.340607 0.0391,1.019531 -0.27284,0.25632 -0.80382,0.975697 -1.18164,1.597656 -0.63026,1.037531 -0.68416,1.241253 -0.64843,2.464844 0.0306,1.047381 0.12598,1.433237 0.44726,1.802734 0.46257,0.532005 0.71541,0.569312 1.63086,0.238282 0.49922,-0.18052 0.77827,-0.181252 1.24805,-0.0039 0.44861,0.169332 0.67473,0.173408 0.86719,0.01367 0.14297,-0.118647 0.31378,-0.160828 0.38086,-0.09375 0.0671,0.06708 0.22389,0.03629 0.34765,-0.06641 0.12375,-0.102705 0.83492,-0.273224 1.58008,-0.378906 1.4056,-0.199351 2.07136,-0.09114 4.07617,0.65625 0.85676,0.319396 2.40985,0.254551 2.63477,-0.109375 0.14496,-0.23455 1.9547,-0.214191 2.10156,0.02344 0.0654,0.105834 0.53389,0.191407 1.04101,0.191406 0.50713,0 1.189,0.09385 1.51368,0.207032 0.38129,0.132918 0.81644,0.142572 1.23047,0.0293 0.35257,-0.09646 0.75052,-0.138768 0.88281,-0.09375 0.76245,0.259426 -0.32837,2.601769 -1.75586,3.771484 -1.15379,0.945444 -1.33602,1.754027 -0.67774,2.994141 0.39619,0.746373 0.46011,1.127694 0.45313,2.705078 -0.0114,2.580054 -0.25333,4.547063 -0.70899,5.78125 -0.2149,0.58208 -0.45127,1.676008 -0.52539,2.429687 -0.0968,0.984059 -0.25685,1.526049 -0.56835,1.923828 -0.5237,0.66873 -1.9766,1.844049 -2.91797,2.361329 -0.81424,0.447419 -1.07538,0.736693 -1.73243,1.919921 -0.53453,0.962589 -1.00516,1.131716 -2.19921,0.791016 -0.3175,-0.0906 -0.95643,-0.25877 -1.41993,-0.375 -0.46351,-0.11624 -1.0038,-0.298657 -1.20117,-0.404297 -0.19738,-0.10563 -1.11634,-0.266845 -2.04297,-0.359375 -0.92663,-0.0925 -2.72414,-0.357994 -3.99414,-0.589844 -1.27001,-0.231849 -2.4389,-0.419958 -2.59765,-0.417968 -0.15875,0.002 -0.46216,-0.06935 -0.67383,-0.158203 -0.21167,-0.0889 -1.11994,-0.347999 -2.01953,-0.574219 -0.89959,-0.22623 -2.01912,-0.634834 -2.48633,-0.908203 -0.53115,-0.31077 -1.21629,-0.521037 -1.82813,-0.560547 -1.96643,-0.12701 -2.81943,-0.374678 -3.29882,-0.960938 -0.51086,-0.624759 -0.55987,-0.89356 -0.26563,-1.443359 0.26462,-0.49445 0.0674,-1.082215 -0.41211,-1.234375 -0.6523,-0.20703 -1.08497,-1.255741 -1.13086,-2.732422 -0.004,-0.12861 -0.26197,-0.5216 -0.57226,-0.875 -0.31028,-0.3534 -0.62061,-0.897242 -0.68946,-1.208984 -0.0689,-0.311744 -0.2973,-1.012642 -0.50781,-1.556641 -0.5264,-1.360328 -0.42309,-2.196935 0.31836,-2.580078 1.35299,-0.699156 2.59766,-1.58422 2.59766,-1.845703 0,-0.154928 -0.13772,-0.548344 -0.30664,-0.875 -0.2492,-0.481904 -0.26444,-0.675522 -0.0762,-1.027344 0.25153,-0.469999 0.95221,-0.861328 1.54102,-0.861328 0.20316,0 0.79984,-0.384327 1.32812,-0.853516 0.52828,-0.469189 1.29011,-0.996568 1.69141,-1.173828 0.4013,-0.177261 1.0198,-0.46491 1.375,-0.638672 0.9359,-0.457847 3.43652,-2.633491 3.77149,-3.28125 0.15746,-0.304503 0.62124,-0.800924 1.03124,-1.103515 0.41001,-0.302592 1.18404,-1.078704 1.72071,-1.72461 0.54815,-0.659733 1.32994,-1.348012 1.7832,-1.572265 0.31906,-0.157858 0.59215,-0.2485 0.80664,-0.279297 z m -3.95703,8.951172 c -0.4792,-0.03236 -0.89897,0.354584 -1.30664,1.154296 -0.22749,0.446255 -0.7791,1.131007 -1.22461,1.523438 -0.69796,0.614804 -0.82541,0.849846 -0.92578,1.697266 -0.12309,1.03932 -0.5193,1.811237 -1.71094,3.332031 -1.13288,1.4458 -0.96905,2.100477 0.57617,2.296875 1.04721,0.133099 1.38672,0.41859 1.38672,1.166016 0,0.449505 -0.21684,0.817882 -0.89062,1.501953 -1.10398,1.120837 -1.06374,1.617899 0.12109,1.458984 0.41961,-0.05628 1.1324,-0.27707 1.58399,-0.490234 0.4516,-0.213164 1.03815,-0.385775 1.30273,-0.384766 0.55521,0.0021 2.19344,-0.693755 2.86523,-1.216797 0.26778,-0.208484 0.7714,-0.357422 1.20899,-0.357422 0.41246,0 1.05396,-0.127035 1.42773,-0.283203 0.37376,-0.156167 1.04711,-0.267503 1.49414,-0.248047 1.67367,0.07284 3.29812,-1.424355 3.07032,-2.828125 -0.0772,-0.475818 0.008,-0.705037 0.39843,-1.076172 0.53776,-0.510366 0.62061,-0.950045 0.29493,-1.558593 -0.24013,-0.44869 -1.28292,-0.931641 -2.00977,-0.931641 -0.27476,0 -0.94921,-0.205757 -1.49805,-0.455078 -0.54885,-0.24932 -1.32952,-0.513418 -1.73437,-0.587891 -0.88825,-0.163393 -1.61273,-0.779797 -2.77344,-2.359375 -0.63961,-0.870428 -1.17705,-1.321158 -1.65625,-1.353515 z m 11.37891,9.017578 c -0.31946,0.03469 -0.66036,0.193202 -1.0293,0.474609 -1.16907,0.891694 -0.70744,1.623021 1.25977,1.996094 0.56782,0.107684 1.07478,0.238846 1.12695,0.291015 0.19164,0.191647 0.56687,0.08531 1.20508,-0.34375 1.20583,-0.81067 0.86702,-1.86914 -0.59766,-1.86914 -0.38288,0 -0.86293,-0.127818 -1.06836,-0.283203 -0.27901,-0.211037 -0.57703,-0.300319 -0.89648,-0.265625 z m -4.62305,6.044922 c -0.19952,-0.089 -0.89078,0.02057 -1.7168,0.271484 -1.19668,0.36348 -1.49233,0.389639 -2.19336,0.193359 -0.91147,-0.255189 -1.3982,-0.09475 -1.90234,0.625 -0.85935,1.226899 0.24814,1.899526 2.48633,1.509766 1.70165,-0.29633 2.41642,-0.261485 4.09765,0.203125 0.81827,0.22612 1.6956,0.399326 1.94922,0.384766 0.25362,-0.0146 0.55764,0.05424 0.67578,0.152343 0.34659,0.28764 2.94763,0.48492 3.70704,0.28125 0.60408,-0.162009 0.67499,-0.538641 0.27343,-1.46875 -0.54088,-1.252808 -0.86804,-1.44662 -2.61718,-1.5625 -2.19308,-0.145289 -4.36985,-0.415854 -4.75977,-0.589843 z"
     sodipodi:nodetypes="cccccccsssssssssssscccsssscssssccccssscssscsssssscssssccssscccsscccccccssssscsccccsssssssscsssssccsssssccscsscccsssssssssssscccsssssssssssssccscssssssssssssscsssssssccssssssscscssssccscssssssssscssssccssssscsssscssssssssssssssscsssssssssssssssssssccssssscccssssssssssssscssccsssssssssssssssscccccccssssssscsssscsssssssssssssssssssssscscscsssssssscscsssssssssscsssssscsssssssscssssccsscsssccscsssccccsssssssssscscssssssssssssssssssscsssssssssssssscsssssssscsssscssssssssssssssssssssssssscssssssssssssssssssssccssssssss" /></svg>
