<svg id="prefix__Layer_1" enable-background="new 0 0 542 157" version="1.1" xml:space="preserve" width="156.634" height="156.634" xmlns="http://www.w3.org/2000/svg"><defs id="prefix__defs2"><mask maskUnits="userSpaceOnUse" x="0" y=".3" width="299.2" height="156.7" id="prefix__mask-2"><g id="prefix__g1" filter="url(#prefix__Adobe_OpacityMaskFilter)"><path id="prefix__path-1" d="M299.2 156.9H.1V.3h299.1z" fill="#fff"/></g></mask><defs id="prefix__defs1"><filter id="prefix__Adobe_OpacityMaskFilter" filterUnits="userSpaceOnUse" x="0" y=".3" width="299.2" height="156.7"><feColorMatrix values="1 0 0 0 0 0 1 0 0 0 0 0 1 0 0 0 0 0 1 0" id="prefix__feColorMatrix1"/></filter></defs></defs><style id="style1"></style><path d="M16.934 142.493l.005-14.142 1.005-.739c1.292-.95 3.25-2.211 5.43-3.499 2.271-1.34 2.822-1.715 3.696-2.51.401-.366 1.329-1.184 2.06-1.819 1.95-1.691 4.36-4.478 5.005-5.785.309-.628.731-1.332.938-1.565.22-.246.326-.555.255-.738-.08-.209.173-.66.746-1.33.476-.557.866-1.18.866-1.381 0-1.053 2.784-4.01 5.506-5.85 1.251-.846 1.99-1.475 2.066-1.762.172-.64.152-1.266-.051-1.651a10.736 10.736 0 01-.417-.98c-.247-.663-2.38-2.983-3.273-3.559l-.499-.322-.149-4.087a217.844 217.844 0 01-.109-8.252c.043-4.482-.124-5.803-1.073-8.498-.254-.72-.462-1.56-.462-1.867 0-.991-.427-2.383-1.829-5.963-.7-1.787-1.4-4.395-1.725-6.418-.049-.303-.173-.651-.275-.775-.103-.124-.24-.699-.306-1.278-.129-1.141-.207-1.515-.98-4.71-.508-2.092-.514-2.195-.503-8.851.01-5.492.067-6.93.31-7.794a9.837 9.837 0 00.314-2.116c.008-.582.095-1.492.194-2.02.1-.53.26-1.44.355-2.021.097-.582.4-1.723.675-2.536.274-.812.5-1.644.5-1.848 0-.772.936-2.9 2.062-4.687.643-1.02 1.221-2.02 1.285-2.22.063-.2.378-.52.7-.71.321-.19.81-.706 1.087-1.147.277-.442.56-.846.631-.9.07-.052.396-.485.722-.961.326-.477.872-1.126 1.212-1.444.34-.317 1.245-1.36 2.011-2.316 1.447-1.808 1.821-2.068 4.817-3.348a41.65 41.65 0 002.082-.981c.616-.314 1.291-.57 1.5-.57.21 0 .634-.13.942-.29.696-.36 3.048-.865 4.11-.883 1.034-.018 3.828-.5 4.932-.851.476-.152 1.472-.357 2.213-.456.74-.099 2.17-.367 3.175-.597 1.005-.23 2.304-.48 2.887-.554.582-.075 1.159-.198 1.282-.275.125-.076.494.09.832.373.594.5.621.504 1.219.19.336-.178.896-.53 1.244-.785.638-.467 2.094-.876 3.118-.876.306 0 .606-.08.667-.18.06-.098.347-.177.637-.176.289.002.915-.083 1.391-.188.477-.105 1.386-.291 2.02-.413a91.886 91.886 0 001.976-.401C86.414.08 87.349 0 88.04 0h1.257l-.12.638c-.079.422-.033.707.136.845.256.207 3.084 1.655 4.443 2.274.65.296 1.148 1.074.867 1.354-.21.211-6.028-.559-6.356-.842-.306-.263-.381-.251-.782.125-.39.366-.663.417-2.259.418-.998 0-2.32.083-2.936.184-1.49.244-4.723 1.465-5.326 2.01-.264.24-.944.715-1.51 1.055-2.07 1.243-2.96 2.554-3.138 4.622-.069.803-.186 1.694-.26 1.98-.1.378-.024.675.28 1.1.452.636.379.97-.357 1.635-.302.274-.403.595-.403 1.292 0 .589-.14 1.158-.384 1.558-.492.808-.487.85.144 1.15.603.288.785 1.035.42 1.719-.199.37-.17.478.206.783.241.195.587.307.77.25.357-.114 2.5 1.545 2.5 1.935 0 .12-.173.374-.384.566-.592.535-.487 1.33.288 2.187.37.41.674.843.674.961 0 .119-.286.59-.636 1.049-.35.458-.753 1.115-.895 1.46-.242.582-.227.656.203 1.062.553.524 2.118 1.128 2.519.974.158-.06.4.027.54.195.216.26.167.396-.331.923-.794.84-1.015 1.323-1.015 2.218 0 .594.128.885.59 1.336.573.56.581.595.311 1.241-.152.366-.526.852-.83 1.08-1.06.796-1.079.827-.963 1.555.083.515-.011.948-.358 1.657-.479.977-.666 2.844-.308 3.065.096.06.129.282.073.496-.061.234.098.69.403 1.15.277.42.504.864.504.988 0 .125-.312.785-.694 1.467l-.693 1.241-1.005-.125c-1.335-.167-1.837.212-1.982 1.495-.198 1.758-1.284 2.026-3.58.882-.617-.308-1.402-.56-1.743-.56-.365 0-1.07-.27-1.716-.659-2.252-1.356-5.15-2.585-6.482-2.75-.37-.045-1.02-.242-1.443-.438-1.052-.485-3.422-1.348-3.703-1.348-.126 0-.513.12-.86.268-.348.147-1.123.357-1.721.467-1.816.333-3.102 1.038-4.041 2.215-.46.576-1.073 1.192-1.362 1.367-.397.241-.62.638-.908 1.61-.334 1.128-.724 3.611-.748 4.753-.004.212-.068.801-.142 1.31-.08.555-.051 1.095.073 1.347.113.232.238.941.277 1.576.073 1.207.508 2.286 1.782 4.426.378.635.823 1.458.99 1.828.752 1.672.961 1.984 1.993 2.968.602.574 1.385 1.506 1.74 2.069 1.334 2.12 2.8 3.947 4.043 5.035 1.545 1.354 3.46 2.6 4.51 2.931.941.298 3.15 1.175 3.606 1.433 1.038.585 3.202-.18 3.832-1.355.728-1.358 2.014-2.305 3.129-2.305.405 0 .5.12.643.818.145.715.225.811.636.768.263-.028.711-.346 1.018-.722.301-.37.616-.63.7-.578.083.052.252-.027.375-.175.137-.165.152-.313.039-.384-.117-.072-.109-.315.02-.658.183-.484.3-.544 1.054-.544.78 0 .877.055 1.2.69.194.378.73 1.04 1.19 1.47.462.43.932.943 1.044 1.141.198.348.22.346.621-.055.23-.228.369-.54.31-.69-.222-.581 2.414-.71 5.022-.245 1.125.2 1.337.297 1.286.587-.039.219.02.297.156.213.12-.074.389.02.598.21.28.253.348.486.26.884-.09.417-.037.571.234.671.194.072.644.35 1.001.618.504.379.848.48 1.54.452 1.011-.042 1.31.095 1.634.746.125.253.42.487.656.52.293.043.428.195.428.483 0 .246.28.654.673.982.37.31.674.717.674.906 0 .381.67.828.966.645.312-.193.213-.653-.196-.908-.48-.3-.493-.76-.033-1.177.743-.672 1.644-.197 1.883.993.083.42.233.613.472.613.192 0 .403.088.47.195.24.39 1.512.767 2.582.767.643 0 1.249.113 1.468.274.22.16.592.23.902.168.293-.058.657.001.816.133.407.338 1.044.122 1.963-.664 1.144-.98 2.379-.901 2.208.14-.031.186.124.567.345.847.226.288.353.657.293.848-.06.186-.017.394.093.462s.2.335.2.594c0 .273.112.47.268.47.344 0 .572.583.324.83-.124.126-.123.315.005.554.148.275.098.519-.203 1.007-.22.354-.348.775-.287.935.062.16.02.348-.094.418-.32.197-.242.68.132.813.185.066.455.213.6.326.146.114.507.181.803.15.437-.046.63.08 1.034.675.274.402.499.906.501 1.12.005.468 1.423 1.53 1.834 1.372.157-.06.368-.328.47-.595.24-.632.77-.643.77-.016 0 .258-.078.518-.173.577-.096.06-.13.281-.074.493.113.432.573.491 1.29.165.712-.325 1.349.172 1.745 1.364.39 1.176 1.049 1.742 2.026 1.742.858 0 2.088.477 2.238.868.139.361 1.31.683 1.992.546.295-.059.59-.012.662.106.192.31.82.259.948-.077.06-.159.287-.289.501-.289.26 0 .391-.126.391-.373 0-.453.246-.63.657-.473.184.071.306.344.306.687 0 .313.097.752.216.975.177.33.153.452-.134.661-.28.205-.302.305-.11.496.131.132.3.246.374.253.074.007.438.147.808.312 1.551.688 2.136.81 4.426.92 1.323.065 2.557.188 2.742.275.344.16.452.704.192.968-.08.08-.144.46-.144.845 0 .586-.093.743-.577.977-1.57.756-6.268 4.435-9.215 7.215-.518.487-1.042.887-1.165.887s-.523.311-.888.692c-.364.381-1.442 1.35-2.394 2.153-.953.802-1.796 1.562-1.873 1.689-.078.126-.987.878-2.02 1.67-1.034.793-3.006 2.568-4.382 3.945-1.376 1.377-2.761 2.636-3.079 2.796-.318.161-.745.478-.95.704-.281.31-.507.383-.913.294-.448-.099-.57-.04-.714.34-.098.257-.106.834-.018 1.314.12.653.095.89-.109 1.005-.297.169-.705 1.003-1.055 2.16-.349 1.152-1.39 2.77-2.455 3.813-.86.844-1.006.917-1.6.802-.5-.098-.784-.333-1.223-1.017a15.241 15.241 0 00-1.106-1.5c-.295-.336-.536-.75-.536-.92 0-.17-.332-.518-.739-.774-.406-.257-1.12-.916-1.587-1.465-1.603-1.885-5.66-5.92-6.254-6.218-.326-.165-.829-.608-1.116-.985-.288-.378-.693-.685-.903-.685-.217 0-1.297-.85-2.505-1.972-1.169-1.085-2.703-2.389-3.41-2.898-1.7-1.224-1.695-1.218-1.336-1.62.168-.187.364-.738.436-1.224.126-.857.112-.891-.475-1.134-.454-.189-.66-.196-.826-.031-.12.121-.592.22-1.047.22-.685 0-.963-.123-1.624-.72-1.43-1.292-1.687-1.886-1.678-3.869.005-.957-.047-1.83-.114-1.939-.068-.11-.195-.837-.282-1.617-.197-1.75-.536-2.512-1.16-2.6-.257-.037-.988-.405-1.624-.818-.636-.414-1.352-.752-1.59-.752-.24 0-.695-.279-1.02-.625l-.588-.626-.59.336c-.58.33-.604.326-1.221-.144-.354-.27-.887-.48-1.219-.48-.512 0-.665-.137-1.184-1.055-.389-.689-.756-1.095-1.06-1.171-.273-.069-.564-.355-.704-.694-.362-.874-1.954-1.284-2.488-.64-.458.552-1.094.334-1.962-.674-.455-.529-.93-.962-1.056-.962-.125 0-.277-.158-.338-.35-.062-.193-.479-.555-.927-.804-.449-.249-.86-.505-.912-.568-.053-.064-.458-.397-.9-.742-1.042-.81-1.55-2.17-1.251-3.347.215-.846.087-1.386-.536-2.26-.45-.632-2.208-1.282-2.958-1.094-.44.11-.513.23-.513.835 0 .813.358 2.9.57 3.328a.73.73 0 010 .577c-.08.159-.384.928-.674 1.711-.291.783-.711 1.604-.934 1.825-.415.412-1.463 2.329-1.463 2.677 0 .107.93 1.13 2.068 2.274a1252.98 1252.98 0 012.646 2.666c.318.323 1.735 1.69 3.15 3.039 1.415 1.349 3.45 3.473 4.522 4.722 1.072 1.248 2.729 3.17 3.681 4.27.953 1.101 2.944 3.081 4.426 4.4 1.482 1.32 3.387 3.08 4.233 3.911 2.282 2.243 7.561 7.783 7.944 8.336.183.265.657.823 1.054 1.24.396.418.72.818.72.89 0 .104 1.772 2.516 2.477 3.37.426.517 2.647 3.964 3.337 5.18.582 1.024.876 1.878 1.226 3.56.254 1.217.462 2.45.463 2.742l.001.53H16.929zm111.889-52.634c-.318-.09-.957-.26-1.42-.376-.464-.116-1.004-.297-1.202-.403-.197-.106-1.117-.268-2.043-.36-.927-.093-2.724-.358-3.994-.59-1.27-.232-2.44-.42-2.598-.418-.159.002-.462-.07-.673-.158-.212-.089-1.121-.347-2.02-.573-.9-.226-2.019-.635-2.486-.908a4.359 4.359 0 00-1.828-.56c-1.966-.127-2.82-.376-3.3-.963-.51-.624-.56-.892-.266-1.442.265-.495.07-1.084-.41-1.236-.652-.207-1.087-1.254-1.132-2.73-.004-.13-.262-.523-.572-.877-.31-.353-.62-.897-.69-1.21-.068-.311-.297-1.011-.507-1.555-.527-1.36-.423-2.197.318-2.58 1.353-.7 2.598-1.584 2.598-1.845 0-.155-.138-.549-.307-.876-.25-.482-.264-.675-.075-1.027.251-.47.95-.861 1.539-.861.203 0 .802-.384 1.33-.853.528-.47 1.289-.998 1.69-1.176.401-.177 1.02-.464 1.375-.638.936-.458 3.436-2.632 3.77-3.28.158-.304.623-.801 1.033-1.104.41-.302 1.184-1.078 1.72-1.724.549-.66 1.33-1.35 1.783-1.574 1.277-.631 1.81-.163.847.742-.273.256-.805.975-1.183 1.597-.63 1.037-.683 1.24-.648 2.464.03 1.047.127 1.435.448 1.804.463.532.715.569 1.63.238.5-.18.78-.182 1.25-.004.448.17.673.172.865.013.143-.119.315-.161.382-.094s.224.038.347-.065c.124-.103.835-.273 1.58-.379 1.406-.199 2.072-.092 4.077.656.857.319 2.41.255 2.634-.109.145-.234 1.956-.215 2.103.022.065.106.534.193 1.041.193.507 0 1.188.092 1.512.205.382.133.818.144 1.232.03.352-.096.75-.138.881-.093.763.26-.327 2.602-1.755 3.772-1.153.945-1.337 1.753-.678 2.993.396.747.46 1.128.453 2.706-.012 2.58-.252 4.547-.708 5.78-.215.583-.451 1.676-.526 2.43-.096.983-.257 1.526-.568 1.924-.524.668-1.976 1.844-2.917 2.361-.814.448-1.076.737-1.733 1.92-.534.963-1.005 1.132-2.2.792zm2.344-4.54c.604-.162.674-.539.272-1.469-.54-1.253-.867-1.448-2.616-1.563-2.193-.146-4.37-.415-4.76-.589-.2-.089-.891.02-1.717.271-1.197.364-1.492.39-2.193.193-.912-.255-1.4-.095-1.904.625-.859 1.227.25 1.9 2.488 1.51 1.701-.296 2.415-.26 4.097.204.818.226 1.695.4 1.949.385.253-.015.557.053.675.151.347.288 2.95.486 3.709.282zm-16.25-5.043c.452-.213 1.037-.387 1.302-.386.555.002 2.192-.693 2.864-1.216.268-.208.772-.357 1.21-.357.412 0 1.055-.128 1.429-.284.373-.156 1.045-.268 1.492-.249 1.674.073 3.3-1.423 3.071-2.827-.077-.476.008-.704.399-1.075.538-.51.621-.95.295-1.56-.24-.448-1.284-.932-2.01-.932-.275 0-.95-.204-1.498-.454-.55-.249-1.33-.514-1.734-.588-.888-.164-1.613-.78-2.774-2.36-1.279-1.74-2.149-1.8-2.964-.2-.227.446-.778 1.133-1.223 1.525-.698.615-.827.85-.927 1.697-.123 1.04-.52 1.81-1.71 3.331-1.134 1.446-.97 2.1.576 2.297 1.047.133 1.387.42 1.387 1.167 0 .45-.218.817-.892 1.5-1.104 1.122-1.062 1.62.123 1.46.42-.055 1.132-.276 1.584-.489zm16.33-2.206c1.207-.81.869-1.87-.596-1.87-.383 0-.864-.127-1.07-.282-.558-.422-1.188-.354-1.925.209-1.17.892-.707 1.624 1.26 1.997.568.108 1.075.238 1.127.29.192.192.567.085 1.205-.344zm-69.48-4.966c-1.248-.443-2.759-1.798-2.592-2.325.06-.185.007-.524-.114-.752-.194-.362-.325-.397-1.021-.28-.44.075-1.102.177-1.473.227-.68.092-2.113.757-2.33 1.082-.189.28-2.301-.054-2.427-.383a.38.38 0 01.147-.443c.213-.131.212-.291-.005-.948-.2-.603-.208-.843-.036-1.015.124-.124.225-.732.225-1.351 0-.655.13-1.383.312-1.742.365-.722 1.305-1.638 2.146-2.09.345-.186.764-.669.994-1.143.651-1.35.516-1.93-.582-2.49-.925-.472-1.044-.47-1.753.035-.545.388-.613.394-1.21.11-.532-.254-.67-.462-.872-1.325-.445-1.895-.774-2.112-1.627-1.073-.486.592-.774.994-1.921 2.686-.57.84-1.291 1.309-1.42.923-.045-.136-.396-.595-.779-1.02-.693-.767-.696-.779-.668-2.425.035-2.004.326-2.755 1.48-3.818 1.485-1.369 2.28-1.683 4.265-1.683 1.858 0 1.805-.019 4.368 1.547.604.368 1.513.749 2.02.845 1.135.216 1.87.586 2.572 1.296.296.299.853.846 1.238 1.216.69.663.94 1.096 1.174 2.03.157.624-.236.622-1.418-.007-1.11-.591-1.497-.374-1.29.724.169.905.735 1.487 1.445 1.487.507 0 .57.065.57.585 0 .321.173.923.384 1.337.33.648.368.988.269 2.446-.064.931-.128 2.014-.144 2.406-.018.463-.163.816-.413 1.007-.38.291-.38.296.059.419.373.105.433.233.384.82-.045.54-.134.685-.395.64-.59-.098-.366.225.819 1.182.68.55 1.154 1.083 1.154 1.3 0 .446-.188.441-1.536-.037zm50.7-20.708c-.526-.124-2.598-2.18-2.598-2.578 0-.398.65-.58 1.555-.436.714.114 2.22-.422 2.919-1.038.473-.418.425-1.136-.096-1.433-1.658-.943-3.174-1.154-5.436-.754-.635.112-1.631.26-2.213.328-.582.07-1.57.375-2.196.68-1.076.527-2.615.758-2.615.395 0-.365-1.081-.608-2.709-.608-1.392 0-1.751-.059-1.844-.302-.198-.515.197-.671 1.972-.78 1.767-.11 3.995-.815 4.192-1.327.11-.289 1.44-.93 2.526-1.22.424-.113 1.477-.237 2.341-.276.984-.044 1.74-.182 2.024-.367.248-.163.72-.355 1.047-.427.327-.072.915-.423 1.306-.782.633-.58.684-.693.466-1.043-.135-.215-.472-.441-.749-.502-.523-.115-2.072.326-2.786.794-.355.233-.597.228-1.766-.036-1.311-.296-1.381-.293-2.14.094-.432.22-.94.402-1.13.404-.396.003-1.784.466-2.704.9-.381.181-.676.49-.75.79-.22.875-2.024 2.198-2.435 1.787-.115-.115-.408-.209-.652-.209-.412 0-.442-.078-.442-1.16 0-.86.126-1.41.483-2.116.266-.525.493-1.02.505-1.1.083-.594.514-1.12 1.684-2.053.742-.591 1.464-1.075 1.606-1.075.142 0 .558-.257.925-.57.366-.313.892-.573 1.169-.577.277-.004.715-.175.975-.379.73-.574 2.773-1.129 4.68-1.27.952-.07 2.087-.192 2.523-.272 1.37-.25 4.273.084 5.492.633.6.27 1.146.581 1.214.693.07.111.547.202 1.06.202 1.235 0 1.459.105 1.958.913.482.78.594 2.307.235 3.224-.124.318-.28 1.14-.347 1.828-.103 1.064-.066 1.322.253 1.724.372.471.372.477-.092 1.392-.33.651-.689 1.033-1.231 1.31-.84.428-1.186.874-1.539 1.987-.166.525-.504.93-1.176 1.413-.864.621-1.034.846-.962 1.275.054.322-.99 1.461-1.606 1.754-.608.288-2.041.373-2.896.17zm17.543-6.727c-.071-.07-.129-.3-.129-.511 0-.21-.221-.674-.492-1.029-.272-.355-.7-1.113-.952-1.684-.253-.571-.55-1.095-.662-1.163-.524-.324.263-2.093 1.379-3.101.616-.557.883-.663 1.738-.692l1.626-.054c.36-.012.817-.21 1.097-.472.625-.587.942-.44 1.266.588.146.46.35.949.452 1.085.122.161.114.394-.024.673-.116.235-.256 1.033-.312 1.774-.144 1.928-.395 3.382-.69 3.993-.356.74-1.134.719-1.701-.049-.514-.694-.722-.725-.871-.129-.153.61-1.351 1.145-1.725.77z" id="prefix__path2" fill="#9b9b9b" fill-opacity="1"/></svg>