<svg id="prefix__Layer_1" enable-background="new 0 0 542 157" version="1.1" xml:space="preserve" width="156.634" height="156.634" xmlns="http://www.w3.org/2000/svg"><defs id="prefix__defs2"><mask maskUnits="userSpaceOnUse" x="0" y=".3" width="299.2" height="156.7" id="prefix__mask-2"><g class="prefix__st0" id="prefix__g1"><path id="prefix__path-1" class="prefix__st1" d="M299.2 156.9H.1V.3h299.1z"/></g></mask><mask maskUnits="userSpaceOnUse" x="0" y=".3" width="299.2" height="156.7" id="prefix__mask-2-3"><g class="prefix__st0" id="prefix__g1-7"><path id="prefix__path-1-3" class="prefix__st1" d="M299.2 156.9H.1V.3h299.1z"/></g></mask><defs id="prefix__defs1"><filter id="prefix__Adobe_OpacityMaskFilter" filterUnits="userSpaceOnUse" x="0" y=".3" width="299.2" height="156.7"><feColorMatrix values="1 0 0 0 0 0 1 0 0 0 0 0 1 0 0 0 0 0 1 0" id="prefix__feColorMatrix1"/></filter></defs><defs id="prefix__defs1-5"><filter id="prefix__Adobe_OpacityMaskFilter-7" filterUnits="userSpaceOnUse" x="0" y=".3" width="299.2" height="156.7"><feColorMatrix values="1 0 0 0 0 0 1 0 0 0 0 0 1 0 0 0 0 0 1 0" id="prefix__feColorMatrix1-8"/></filter></defs><filter id="prefix__filter2" filterUnits="userSpaceOnUse" x="0" y=".3" width="299.2" height="156.7"><feColorMatrix values="1 0 0 0 0 0 1 0 0 0 0 0 1 0 0 0 0 0 1 0" id="prefix__feColorMatrix2"/></filter></defs><style id="style1">.prefix__st0{filter:url(#prefix__Adobe_OpacityMaskFilter)}.prefix__st1{fill:#fff}</style><path id="prefix__rect2" d="M37.833 0h80.383a38.419 38.419 45 0138.419 38.419v80.383a37.833 37.833 135 01-37.833 37.833H38.223A38.223 38.223 45 010 118.412v-80.58A37.833 37.833 135 0137.833 0z" fill="#14182c" stroke-width="2.893" stroke-dasharray="17.356 17.356" fill-opacity="1"/><path id="prefix__path2" d="M37.93 0C16.982 0 0 16.982 0 37.93v80.775a37.929 37.929 0 0016.932 31.576l.002-7.789.006-14.14 1.003-.739c1.293-.95 3.25-2.212 5.43-3.5 2.271-1.34 2.823-1.714 3.697-2.51.402-.365 1.33-1.183 2.06-1.818 1.951-1.692 4.36-4.48 5.005-5.787.31-.628.73-1.332.937-1.564.22-.247.327-.555.256-.739-.08-.208.174-.657.746-1.328.477-.558.866-1.18.866-1.383 0-1.052 2.785-4.01 5.507-5.85 1.252-.845 1.988-1.474 2.065-1.76.171-.64.152-1.266-.051-1.651a10.705 10.705 0 01-.418-.98c-.246-.663-2.38-2.984-3.271-3.56l-.5-.322-.149-4.088c-.082-2.247-.131-5.96-.11-8.252.043-4.481-.122-5.803-1.072-8.498-.253-.72-.462-1.559-.462-1.865 0-.991-.427-2.385-1.829-5.965-.7-1.786-1.401-4.394-1.726-6.418-.049-.302-.17-.65-.274-.773-.102-.124-.24-.7-.306-1.28-.129-1.14-.206-1.513-.98-4.708-.508-2.092-.513-2.196-.503-8.852.01-5.491.067-6.93.311-7.793a9.844 9.844 0 00.314-2.117c.008-.582.095-1.492.194-2.022.099-.529.259-1.437.355-2.02.097-.581.4-1.722.674-2.534.275-.813.5-1.644.5-1.848 0-.772.936-2.9 2.063-4.687.643-1.02 1.22-2.02 1.283-2.221.063-.2.38-.52.7-.71.322-.189.812-.706 1.089-1.148.276-.441.56-.845.63-.898.071-.053.395-.487.721-.963.327-.476.873-1.126 1.213-1.443.34-.318 1.246-1.36 2.012-2.317 1.447-1.807 1.82-2.067 4.816-3.347.53-.226 1.467-.667 2.082-.98.616-.314 1.29-.571 1.5-.571.21 0 .634-.132.942-.291.696-.36 3.048-.865 4.111-.883 1.033-.017 3.828-.498 4.932-.85.476-.151 1.472-.358 2.213-.456.74-.1 2.168-.368 3.174-.598 1.005-.23 2.304-.478 2.886-.553.582-.075 1.16-.2 1.283-.275.125-.077.495.089.832.373.595.5.621.504 1.22.19.335-.178.896-.53 1.243-.784.64-.467 2.094-.877 3.118-.877.306 0 .607-.08.668-.18.06-.098.347-.177.636-.175.29.002.915-.085 1.39-.19a91.03 91.03 0 012.022-.412A91.493 91.493 0 0085.963.18C86.414.08 87.35 0 88.041 0zm51.367 0l-.12.639c-.079.422-.034.706.135.843.256.208 3.086 1.657 4.444 2.276.65.296 1.148 1.073.867 1.353-.211.211-6.028-.559-6.355-.841-.306-.264-.383-.252-.784.125-.39.366-.662.417-2.257.417-.999.001-2.32.083-2.936.184-1.49.244-4.724 1.464-5.326 2.01-.265.24-.946.714-1.512 1.055-2.069 1.242-2.958 2.555-3.137 4.623-.069.803-.187 1.693-.261 1.978-.099.38-.022.676.28 1.102.453.635.38.968-.356 1.634-.303.274-.403.594-.403 1.291 0 .589-.141 1.16-.385 1.559-.492.808-.486.85.145 1.15.603.288.786 1.036.42 1.72-.198.37-.17.477.207.782.24.195.585.306.767.248.358-.113 2.502 1.547 2.502 1.938 0 .12-.173.373-.384.564-.592.535-.486 1.33.289 2.188.37.41.674.842.674.96 0 .12-.287.592-.637 1.05-.35.458-.752 1.114-.895 1.459-.241.582-.227.658.203 1.064.554.523 2.119 1.127 2.52.973.158-.06.4.027.539.195.216.26.166.397-.332.924-.794.839-1.014 1.322-1.014 2.217 0 .593.13.885.59 1.336.574.56.58.595.31 1.242-.152.365-.526.852-.83 1.08-1.06.796-1.079.825-.962 1.553.082.515-.01.949-.358 1.658-.478.977-.666 2.843-.308 3.064.096.06.13.283.074.496-.061.235.098.69.402 1.15.278.42.504.865.504.989s-.312.784-.693 1.467l-.694 1.242-1.005-.127c-1.336-.167-1.838.213-1.983 1.496-.198 1.758-1.283 2.026-3.578.883-.618-.308-1.403-.56-1.744-.56-.365 0-1.07-.273-1.715-.66-2.252-1.357-5.15-2.584-6.482-2.749-.37-.045-1.02-.244-1.444-.44-1.051-.484-3.422-1.347-3.703-1.347-.126 0-.514.12-.861.268-.348.147-1.122.357-1.72.467-1.817.333-3.102 1.038-4.042 2.216-.46.576-1.072 1.19-1.361 1.366-.397.24-.621.637-.908 1.609-.334 1.128-.725 3.612-.748 4.754-.004.211-.067.801-.141 1.31-.08.555-.052 1.096.072 1.348.114.232.239.94.278 1.574.073 1.207.507 2.286 1.78 4.426.379.635.824 1.458.991 1.828.752 1.672.96 1.985 1.992 2.969.603.575 1.386 1.505 1.74 2.068 1.334 2.12 2.801 3.949 4.043 5.037 1.546 1.354 3.462 2.598 4.512 2.93.94.298 3.148 1.176 3.606 1.434 1.038.585 3.202-.181 3.832-1.356.728-1.358 2.014-2.305 3.129-2.305.405 0 .5.12.642.817.146.715.226.813.637.77.263-.028.711-.348 1.017-.723.302-.37.616-.63.7-.578.083.051.252-.026.375-.174.137-.165.152-.315.039-.385-.117-.072-.108-.315.021-.658.183-.484.298-.545 1.053-.545.78 0 .878.056 1.201.69.194.379.728 1.04 1.19 1.47.46.43.93.944 1.042 1.143.199.348.22.346.622-.055.228-.229.368-.54.31-.691-.223-.581 2.414-.709 5.022-.245 1.125.2 1.338.296 1.287.586-.039.22.02.298.156.213.12-.074.387.022.596.211.28.254.349.486.261.885-.091.417-.036.57.235.67.193.071.643.35 1 .619.503.379.848.48 1.539.451 1.011-.042 1.31.094 1.635.746.125.253.42.488.656.522.293.042.428.192.428.48 0 .246.28.655.673.983.37.309.674.716.674.906 0 .38.67.828.967.644.312-.193.212-.652-.197-.908-.48-.3-.493-.76-.033-1.176.743-.672 1.644-.198 1.882.993.084.418.234.613.473.613.192 0 .402.088.469.195.24.39 1.513.768 2.584.768.643 0 1.247.112 1.467.273.219.161.591.23.902.168.293-.058.658.001.816.133.407.338 1.045.122 1.963-.664 1.144-.98 2.378-.902 2.207.139-.03.186.126.57.346.85.226.287.354.656.293.847-.06.186-.018.393.092.46.11.069.2.336.2.595 0 .273.113.47.268.47.345 0 .572.583.325.83-.125.125-.123.314.006.553.147.275.098.52-.203 1.008-.22.354-.349.775-.288.935.062.16.02.349-.093.418-.32.198-.243.68.13.813.186.066.457.213.602.326.146.113.507.182.803.15.437-.045.63.08 1.033.674.273.402.5.906.502 1.12.005.469 1.423 1.53 1.834 1.373.156-.06.367-.327.469-.594.24-.632.771-.645.771-.018 0 .259-.078.519-.174.578-.095.06-.13.28-.074.492.113.433.573.493 1.29.167.712-.325 1.35.17 1.745 1.363.39 1.175 1.049 1.742 2.026 1.742.858 0 2.088.476 2.238.867.139.361 1.31.683 1.992.547.295-.059.59-.012.662.106.192.31.819.259.948-.077.06-.158.287-.289.502-.289.258 0 .39-.126.39-.373 0-.453.246-.63.656-.472.185.07.307.344.307.687 0 .313.098.75.217.973.177.33.152.452-.135.662-.28.205-.303.304-.111.496.132.132.3.247.375.254.074.007.438.146.808.31 1.551.689 2.137.811 4.426.922 1.323.064 2.557.187 2.742.274.344.16.451.705.192.968-.08.081-.145.46-.145.844 0 .586-.092.743-.576.977-1.569.756-6.267 4.435-9.215 7.215-.517.488-1.042.888-1.166.888-.123 0-.522.31-.886.692-.365.38-1.443 1.35-2.395 2.152-.953.803-1.796 1.563-1.873 1.69-.078.126-.986.879-2.02 1.671-1.033.793-3.007 2.567-4.382 3.944-1.376 1.377-2.76 2.636-3.079 2.797-.317.16-.746.476-.95.703-.281.31-.506.384-.913.295-.448-.099-.57-.041-.715.34-.098.257-.105.832-.017 1.312.12.653.096.89-.108 1.006-.297.168-.707 1.004-1.056 2.16-.35 1.153-1.391 2.77-2.455 3.812-.861.844-1.007.918-1.6.803-.502-.097-.784-.334-1.223-1.017a15.239 15.239 0 00-1.107-1.5c-.295-.336-.535-.748-.535-.918 0-.17-.332-.52-.739-.776-.406-.256-1.12-.916-1.587-1.465-1.604-1.885-5.66-5.919-6.254-6.218-.327-.165-.828-.608-1.116-.985-.288-.378-.692-.685-.902-.685-.216 0-1.298-.851-2.506-1.973-1.168-1.085-2.703-2.387-3.41-2.896-1.7-1.224-1.695-1.219-1.336-1.62.168-.187.364-.74.436-1.226.126-.857.112-.89-.475-1.133-.454-.188-.66-.196-.826-.031-.121.121-.592.22-1.047.22-.685 0-.962-.123-1.623-.72-1.43-1.292-1.687-1.886-1.678-3.87.005-.956-.047-1.83-.115-1.939-.068-.11-.194-.835-.281-1.615-.197-1.751-.536-2.513-1.16-2.602-.257-.036-.99-.405-1.625-.818-.637-.413-1.352-.752-1.59-.752-.24 0-.695-.278-1.02-.625l-.588-.625-.59.336c-.579.33-.603.326-1.22-.144-.354-.27-.888-.48-1.219-.48-.513 0-.665-.137-1.184-1.056-.388-.689-.756-1.093-1.06-1.17-.273-.068-.565-.354-.705-.693-.362-.874-1.954-1.284-2.488-.64-.459.552-1.094.333-1.961-.674-.456-.53-.932-.963-1.057-.963-.125 0-.277-.157-.338-.35-.061-.193-.479-.555-.928-.804-.448-.25-.859-.505-.912-.569-.053-.063-.458-.396-.9-.74-1.042-.81-1.55-2.17-1.25-3.348.215-.846.088-1.385-.535-2.26-.45-.63-2.21-1.283-2.96-1.095-.439.11-.511.231-.511.836 0 .813.358 2.9.57 3.328.08.16.078.42-.002.578-.08.158-.383.928-.674 1.71-.29.784-.71 1.604-.933 1.825-.415.412-1.463 2.33-1.463 2.678 0 .107.93 1.13 2.068 2.273 1.138 1.144 2.33 2.344 2.647 2.666.317.323 1.735 1.69 3.15 3.04 1.415 1.348 3.45 3.472 4.522 4.72 1.072 1.248 2.729 3.17 3.681 4.272.953 1.1 2.944 3.081 4.426 4.4 1.482 1.319 3.386 3.078 4.233 3.91 2.281 2.243 7.56 7.783 7.943 8.336.183.265.658.823 1.055 1.24.396.418.718.818.718.889 0 .104 1.772 2.517 2.477 3.371.426.517 2.647 3.964 3.338 5.18.581 1.024.876 1.878 1.226 3.56.254 1.217.462 2.451.463 2.742v.53h31.543c20.948 0 37.93-16.982 37.93-37.93V37.93c0-20.948-16.982-37.93-37.93-37.93zm24.072 33.795c1.452.014 3.312.305 4.227.717.599.27 1.146.58 1.215.691.068.112.546.203 1.06.203 1.234 0 1.458.104 1.957.912.482.78.593 2.308.235 3.225-.125.317-.28 1.14-.346 1.828-.104 1.064-.066 1.322.252 1.725.372.47.372.475-.092 1.39-.33.651-.688 1.034-1.23 1.31-.841.43-1.186.874-1.54 1.987-.166.525-.503.931-1.175 1.414-.865.621-1.035.847-.963 1.276.054.321-.989 1.46-1.606 1.754-.607.288-2.041.372-2.896.17-.526-.125-2.598-2.181-2.598-2.579 0-.398.65-.58 1.555-.435.713.114 2.22-.422 2.92-1.04.473-.416.423-1.134-.098-1.43-1.658-.944-3.173-1.156-5.435-.757-.635.112-1.631.262-2.213.33-.582.069-1.57.374-2.196.68-1.076.526-2.615.758-2.615.395 0-.366-1.081-.61-2.709-.61-1.392 0-1.75-.058-1.844-.3-.197-.515.198-.672 1.973-.782 1.767-.109 3.995-.814 4.191-1.326.111-.289 1.439-.931 2.526-1.22.423-.114 1.477-.237 2.342-.276.983-.044 1.74-.182 2.023-.367.249-.163.72-.354 1.047-.426.327-.072.914-.425 1.305-.783.633-.58.685-.694.466-1.043-.134-.216-.47-.441-.748-.502-.523-.115-2.07.327-2.785.795-.355.232-.598.227-1.767-.037-1.311-.296-1.382-.292-2.141.095-.432.22-.94.401-1.129.403-.396.003-1.784.465-2.703.9-.382.18-.677.491-.752.791-.22.874-2.022 2.197-2.434 1.785-.114-.115-.409-.209-.652-.209-.413 0-.441-.077-.441-1.16 0-.858.124-1.41.482-2.115.266-.525.493-1.02.504-1.1.083-.594.516-1.119 1.686-2.053.74-.591 1.463-1.076 1.605-1.076.142 0 .557-.255.924-.568.366-.313.893-.574 1.17-.578.277-.004.715-.175.974-.38.731-.574 2.773-1.128 4.68-1.269.953-.07 2.088-.192 2.523-.271a6.978 6.978 0 011.266-.084zm20.992 2.855c.198.092.358.387.52.9.145.462.348.95.451 1.087.122.161.114.393-.023.672-.116.234-.255 1.032-.31 1.773-.145 1.928-.396 3.384-.69 3.994-.358.742-1.136.719-1.703-.049-.514-.694-.722-.724-.872-.129-.153.61-1.35 1.144-1.724.77-.07-.07-.13-.3-.13-.51 0-.21-.22-.674-.491-1.03-.271-.354-.699-1.112-.951-1.683-.253-.57-.551-1.095-.663-1.164-.523-.323.263-2.091 1.38-3.1.616-.556.883-.662 1.738-.69.555-.02 1.285-.044 1.625-.055.359-.013.818-.21 1.097-.473.313-.294.548-.404.746-.313zM50.506 51.861c1.859 0 1.806-.018 4.369 1.547.604.369 1.512.75 2.02.846 1.134.215 1.87.585 2.572 1.295.295.299.851.846 1.236 1.217.69.663.94 1.096 1.174 2.029.157.624-.236.621-1.418-.008-1.11-.59-1.495-.373-1.29.725.17.905.736 1.486 1.446 1.486.507 0 .57.066.57.586 0 .322.172.924.383 1.338.33.648.37.988.27 2.445-.064.931-.13 2.014-.145 2.406-.018.463-.162.815-.412 1.006-.38.291-.38.297.059.42.374.105.434.233.385.82-.045.54-.134.685-.395.641-.59-.099-.366.224.818 1.182.68.549 1.153 1.083 1.153 1.299 0 .446-.188.44-1.533-.037h-.002c-1.248-.444-2.757-1.798-2.59-2.325.059-.185.007-.523-.116-.752-.193-.361-.325-.397-1.021-.279-.44.074-1.102.176-1.473.227-.68.092-2.112.757-2.33 1.082-.188.28-2.301-.056-2.427-.385a.38.38 0 01.148-.442c.213-.131.211-.292-.006-.949-.199-.603-.207-.842-.035-1.013.124-.124.225-.733.225-1.352 0-.655.13-1.384.312-1.742.365-.723 1.305-1.637 2.147-2.09.344-.185.762-.668.992-1.143.652-1.349.517-1.93-.58-2.49-.926-.472-1.045-.47-1.754.035-.545.388-.613.394-1.21.11-.532-.254-.67-.461-.872-1.325-.445-1.895-.773-2.111-1.627-1.072-.486.591-.775.994-1.922 2.686-.57.84-1.29 1.308-1.418.922-.045-.136-.396-.595-.78-1.02-.693-.768-.696-.779-.667-2.426.034-2.003.325-2.755 1.478-3.818 1.485-1.369 2.281-1.682 4.266-1.682zm70.758 5.823c.643-.093.761.34.039 1.02-.273.255-.804.975-1.182 1.597-.63 1.037-.684 1.241-.648 2.465.03 1.047.126 1.433.447 1.802.463.532.715.57 1.63.239.5-.18.78-.182 1.249-.004.448.17.675.173.867.013.143-.118.314-.16.38-.093.068.067.225.036.349-.067.123-.102.834-.273 1.58-.379 1.405-.199 2.071-.09 4.076.657.857.319 2.41.254 2.635-.11.145-.234 1.954-.214 2.101.024.066.105.534.191 1.041.191.507 0 1.19.094 1.514.207.381.133.816.143 1.23.03.353-.097.75-.14.883-.094.763.26-.328 2.601-1.756 3.771-1.154.946-1.336 1.754-.677 2.994.396.747.46 1.128.453 2.705-.012 2.58-.254 4.547-.71 5.782-.214.582-.45 1.676-.525 2.43-.097.983-.257 1.525-.568 1.923-.524.669-1.977 1.844-2.918 2.361-.814.448-1.075.737-1.732 1.92-.535.963-1.006 1.132-2.2.791-.317-.09-.956-.258-1.42-.375-.463-.116-1.003-.298-1.2-.404-.198-.106-1.117-.267-2.044-.36-.926-.092-2.724-.357-3.994-.59-1.27-.231-2.439-.42-2.598-.417-.158.002-.462-.07-.673-.158-.212-.09-1.12-.348-2.02-.575-.9-.226-2.019-.634-2.486-.908a4.36 4.36 0 00-1.828-.56c-1.967-.127-2.82-.375-3.3-.961-.51-.625-.56-.894-.265-1.444.265-.494.068-1.082-.412-1.234-.652-.207-1.085-1.256-1.13-2.732-.005-.129-.263-.522-.573-.875-.31-.354-.62-.898-.69-1.21-.068-.311-.297-1.012-.507-1.556-.527-1.36-.423-2.197.318-2.58 1.353-.7 2.598-1.584 2.598-1.846 0-.155-.138-.548-.307-.875-.25-.482-.264-.675-.076-1.027.251-.47.952-.861 1.54-.861.204 0 .8-.385 1.329-.854.528-.47 1.29-.997 1.691-1.174a47.14 47.14 0 001.375-.638c.936-.458 3.437-2.634 3.772-3.282.157-.304.621-.8 1.031-1.103.41-.303 1.184-1.079 1.72-1.725.549-.66 1.33-1.348 1.784-1.572.32-.158.592-.249.807-.28zm-3.957 8.95c-.48-.032-.9.355-1.307 1.155-.227.446-.78 1.131-1.225 1.523-.698.615-.825.85-.925 1.698-.123 1.04-.52 1.811-1.711 3.332-1.133 1.446-.97 2.1.576 2.297 1.047.133 1.387.418 1.387 1.166 0 .45-.217.818-.891 1.502-1.104 1.12-1.064 1.618.121 1.459.42-.057 1.132-.277 1.584-.49.452-.214 1.038-.386 1.303-.385.555.002 2.193-.694 2.865-1.217.268-.209.771-.358 1.209-.358.412 0 1.054-.127 1.428-.283.373-.156 1.047-.267 1.494-.248 1.674.073 3.298-1.424 3.07-2.828-.077-.476.008-.705.399-1.076.537-.51.62-.95.295-1.559-.24-.448-1.283-.931-2.01-.931-.275 0-.95-.206-1.498-.455-.55-.25-1.33-.514-1.735-.588-.888-.164-1.612-.78-2.773-2.36-.64-.87-1.177-1.32-1.656-1.353zm11.379 9.018c-.32.035-.66.194-1.03.475-1.169.892-.707 1.623 1.26 1.996.568.108 1.075.239 1.127.291.192.192.567.085 1.205-.344 1.206-.81.867-1.869-.598-1.869-.382 0-.863-.128-1.068-.283a1.225 1.225 0 00-.896-.266zm-4.624 6.045c-.199-.089-.89.02-1.716.272-1.197.363-1.493.39-2.194.193-.911-.255-1.398-.095-1.902.625-.86 1.227.248 1.9 2.486 1.51 1.702-.296 2.417-.262 4.098.203.818.226 1.696.4 1.95.385.253-.015.557.054.675.152.347.288 2.948.485 3.707.281.604-.162.675-.538.273-1.468-.54-1.253-.868-1.447-2.617-1.563-2.193-.145-4.37-.416-4.76-.59z" fill="#fff" fill-opacity="1"/><style id="style1-2">.prefix__st0{filter:url(#prefix__Adobe_OpacityMaskFilter)}.prefix__st1{fill:#fff}</style></svg>